G04 ================== begin FILE IDENTIFICATION RECORD ==================*
G04 Layout Name:  C:/CADENCE/allegro/SCHEMA_PT_PCB_FINAL.brd*
G04 Film Name:    BOTTOM*
G04 File Format:  Gerber RS274X*
G04 File Origin:  Cadence Allegro 17.2-S025*
G04 Origin Date:  Sat Dec 28 18:11:48 2024*
G04 *
G04 Layer:  ETCH/BOTTOM*
G04 Layer:  PIN/BOTTOM*
G04 Layer:  VIA CLASS/BOTTOM*
G04 *
G04 Offset:    (0.000 0.000)*
G04 Mirror:    No*
G04 Mode:      Positive*
G04 Rotation:  0*
G04 FullContactRelief:  No*
G04 UndefLineWidth:     10.000*
G04 ================== end FILE IDENTIFICATION RECORD ====================*
%FSLAX25Y25*MOIN*%
%IR0*IPPOS*OFA0.00000B0.00000*MIA0B0*SFA1.00000B1.00000*%
%ADD10C,.03*%
%ADD11C,.016*%
%ADD12C,.018*%
G75*
%LPD*%
G75*
G54D10*
X41000Y60000D03*
X37300Y96500D03*
Y104100D03*
X70000Y34200D03*
X54854Y78000D03*
X79000D03*
X75000Y104000D03*
X73000Y130000D03*
X109100Y23700D03*
X129200Y50300D03*
X119000Y45000D03*
X108000Y72000D03*
Y91000D03*
X108500Y148000D03*
X107200Y137000D03*
X132900Y59300D03*
X134000Y88000D03*
G54D11*
G01X37300Y96500D02*
Y104100D01*
G01X70000Y34200D02*
Y25300D01*
X71600Y23700D01*
X109100D01*
G01X73000Y130000D02*
X69600D01*
X68000Y128400D01*
Y105600D01*
X69600Y104000D01*
X75000D01*
G01X107200Y137000D02*
X105432Y135232D01*
Y123168D01*
X107800Y120800D01*
X111600D01*
X114900Y117500D01*
Y91300D01*
X116500Y89700D01*
X124900D01*
X129200Y85400D01*
Y61009D01*
X128600Y60409D01*
Y57591D01*
X129200Y56991D01*
Y50300D01*
G01X119000Y45000D02*
X117000Y43000D01*
X114600D01*
X113000Y44600D01*
Y70400D01*
X111400Y72000D01*
X108000D01*
G01Y91000D02*
Y72000D01*
G01X108500Y148000D02*
X106600Y146100D01*
Y140400D01*
X107200Y139800D01*
Y137000D01*
G01X134000Y88000D02*
Y63200D01*
X132900Y62100D01*
Y59300D01*
G54D12*
G01X79000Y78000D02*
Y89200D01*
X73200Y95000D01*
X42800D01*
X41000Y93200D01*
Y60000D01*
G01X54854Y78000D02*
X79000D01*
M02*
