G04 ================== begin FILE IDENTIFICATION RECORD ==================*
G04 Layout Name:  C:/CADENCE/allegro/SCHEMA_PT_PCB_FINAL.brd*
G04 Film Name:    FAB*
G04 File Format:  Gerber RS274X*
G04 File Origin:  Cadence Allegro 17.2-S025*
G04 Origin Date:  Tue Jan 21 23:31:17 2025*
G04 *
G04 Layer:  MANUFACTURING/NCDRILL_LEGEND*
G04 Layer:  MANUFACTURING/NCDRILL_FIGURE*
G04 Layer:  MANUFACTURING/XSECTION_CHART*
G04 Layer:  MANUFACTURING/NCLEGEND-1-2*
G04 Layer:  BOARD GEOMETRY/OUTLINE*
G04 Layer:  BOARD GEOMETRY/DIMENSION*
G04 *
G04 Offset:    (0.000 0.000)*
G04 Mirror:    No*
G04 Mode:      Positive*
G04 Rotation:  0*
G04 FullContactRelief:  No*
G04 UndefLineWidth:     10.000*
G04 ================== end FILE IDENTIFICATION RECORD ====================*
%FSLAX25Y25*MOIN*%
%IR0*IPPOS*OFA0.00000B0.00000*MIA0B0*SFA1.00000B1.00000*%
%AMMACRO10*
1,1,.01,.025,0.0*
20,1,.01,.025,0.0,.02462,-.004341,0.0*
1,1,.01,.02462,-.004341*
20,1,.01,.02462,-.004341,.023492,-.008551,0.0*
1,1,.01,.023492,-.008551*
20,1,.01,.023492,-.008551,.021651,-.0125,0.0*
1,1,.01,.021651,-.0125*
20,1,.01,.021651,-.0125,.019151,-.01607,0.0*
1,1,.01,.019151,-.01607*
20,1,.01,.019151,-.01607,.01607,-.019151,0.0*
1,1,.01,.01607,-.019151*
20,1,.01,.01607,-.019151,.0125,-.021651,0.0*
1,1,.01,.0125,-.021651*
20,1,.01,.0125,-.021651,.008551,-.023492,0.0*
1,1,.01,.008551,-.023492*
20,1,.01,.008551,-.023492,.004341,-.02462,0.0*
1,1,.01,.004341,-.02462*
20,1,.01,.004341,-.02462,0.0,-.025,0.0*
1,1,.01,0.0,-.025*
20,1,.01,0.0,-.025,-.004341,-.02462,0.0*
1,1,.01,-.004341,-.02462*
20,1,.01,-.004341,-.02462,-.008551,-.023492,0.0*
1,1,.01,-.008551,-.023492*
20,1,.01,-.008551,-.023492,-.0125,-.021651,0.0*
1,1,.01,-.0125,-.021651*
20,1,.01,-.0125,-.021651,-.01607,-.019151,0.0*
1,1,.01,-.01607,-.019151*
20,1,.01,-.01607,-.019151,-.019151,-.01607,0.0*
1,1,.01,-.019151,-.01607*
20,1,.01,-.019151,-.01607,-.021651,-.0125,0.0*
1,1,.01,-.021651,-.0125*
20,1,.01,-.021651,-.0125,-.023492,-.008551,0.0*
1,1,.01,-.023492,-.008551*
20,1,.01,-.023492,-.008551,-.02462,-.004341,0.0*
1,1,.01,-.02462,-.004341*
20,1,.01,-.02462,-.004341,-.025,0.0,0.0*
1,1,.01,-.025,0.0*
20,1,.01,-.025,0.0,-.02462,.004341,0.0*
1,1,.01,-.02462,.004341*
20,1,.01,-.02462,.004341,-.023492,.008551,0.0*
1,1,.01,-.023492,.008551*
20,1,.01,-.023492,.008551,-.021651,.0125,0.0*
1,1,.01,-.021651,.0125*
20,1,.01,-.021651,.0125,-.019151,.01607,0.0*
1,1,.01,-.019151,.01607*
20,1,.01,-.019151,.01607,-.01607,.019151,0.0*
1,1,.01,-.01607,.019151*
20,1,.01,-.01607,.019151,-.0125,.021651,0.0*
1,1,.01,-.0125,.021651*
20,1,.01,-.0125,.021651,-.008551,.023492,0.0*
1,1,.01,-.008551,.023492*
20,1,.01,-.008551,.023492,-.004341,.02462,0.0*
1,1,.01,-.004341,.02462*
20,1,.01,-.004341,.02462,0.0,.025,0.0*
1,1,.01,0.0,.025*
20,1,.01,0.0,.025,.004341,.02462,0.0*
1,1,.01,.004341,.02462*
20,1,.01,.004341,.02462,.008551,.023492,0.0*
1,1,.01,.008551,.023492*
20,1,.01,.008551,.023492,.0125,.021651,0.0*
1,1,.01,.0125,.021651*
20,1,.01,.0125,.021651,.01607,.019151,0.0*
1,1,.01,.01607,.019151*
20,1,.01,.01607,.019151,.019151,.01607,0.0*
1,1,.01,.019151,.01607*
20,1,.01,.019151,.01607,.021651,.0125,0.0*
1,1,.01,.021651,.0125*
20,1,.01,.021651,.0125,.023492,.008551,0.0*
1,1,.01,.023492,.008551*
20,1,.01,.023492,.008551,.02462,.004341,0.0*
1,1,.01,.02462,.004341*
20,1,.01,.02462,.004341,.025,0.0,0.0*
1,1,.01,.025,0.0*
1,1,.01,.0125,0.0*
20,1,.01,.0125,0.0,-.0125,0.0,0.0*
1,1,.01,-.0125,0.0*
1,1,.01,0.0,.0125*
20,1,.01,0.0,.0125,0.0,-.0125,0.0*
1,1,.01,0.0,-.0125*
%
%ADD10MACRO10*%
%ADD11C,.01*%
G75*
%LPD*%
G75*
G36*
G01X-370600Y182106D02*
Y179909D01*
X-368100D01*
Y-15367D01*
X-370600D01*
Y-17564D01*
X-355600D01*
Y-15367D01*
X-358100D01*
Y179909D01*
X-355600D01*
Y182106D01*
X-370600D01*
G37*
G36*
G01X-390600Y-17564D02*
Y-15367D01*
X-330600D01*
Y-17564D01*
X-390600D01*
G37*
G36*
G01Y179909D02*
Y182106D01*
X-330600D01*
Y179909D01*
X-390600D01*
G37*
G54D10*
X-535850Y250200D03*
X41000Y60000D03*
X37300Y96500D03*
Y104100D03*
X70000Y34200D03*
X54854Y78000D03*
X79000D03*
X75000Y104000D03*
X73000Y130000D03*
X109100Y23700D03*
X129200Y50300D03*
X119000Y45000D03*
X108000Y72000D03*
Y91000D03*
X108500Y148000D03*
X107200Y137000D03*
X132900Y59300D03*
X134000Y88000D03*
G54D11*
G01X-580800Y237700D02*
Y337700D01*
X-84800D01*
Y237700D01*
X-580800D01*
G01X-569795Y268950D02*
Y281450D01*
X-563905D01*
G01X-566075Y275408D02*
X-569795D01*
G01X-556310Y281450D02*
X-552590D01*
G01X-554450D02*
Y268950D01*
G01X-556310D02*
X-552590D01*
G01X-541120Y275200D02*
X-538020D01*
Y271450D01*
X-538950Y270200D01*
X-540035Y269367D01*
X-541585Y268950D01*
X-543135Y269367D01*
X-544220Y270200D01*
X-545150Y271450D01*
X-545770Y272908D01*
X-546080Y274575D01*
Y276033D01*
X-545770Y277283D01*
X-545150Y278742D01*
X-544220Y279992D01*
X-543290Y280825D01*
X-542050Y281450D01*
X-540965D01*
X-539725Y281033D01*
X-538795Y280200D01*
G01X-533060Y281450D02*
Y272492D01*
X-532440Y270616D01*
X-531200Y269367D01*
X-529650Y268950D01*
X-528100Y269367D01*
X-526860Y270616D01*
X-526240Y272492D01*
Y281450D01*
G01X-520350Y268950D02*
Y281450D01*
X-516475D01*
X-515235Y280825D01*
X-514460Y279992D01*
X-514150Y278325D01*
X-514460Y276658D01*
X-515390Y275617D01*
X-516475Y274992D01*
X-520350D01*
G01X-516475D02*
X-514150Y268950D01*
G01X-501750D02*
X-507950D01*
Y281450D01*
X-501750D01*
G01X-504230Y275408D02*
X-507950D01*
G01X-580800Y262700D02*
X-84800D01*
G01X-580800Y287700D02*
X-84800D01*
G01X-580800Y312700D02*
X-84800D01*
G01X-490900Y287700D02*
Y237700D01*
G01X-491210Y318950D02*
Y331450D01*
X-488110D01*
X-486870Y330825D01*
X-485940Y329992D01*
X-485165Y328742D01*
X-484545Y327283D01*
X-484390Y325200D01*
X-484545Y323116D01*
X-485165Y321658D01*
X-485940Y320408D01*
X-486870Y319575D01*
X-488110Y318950D01*
X-491210D01*
G01X-478500D02*
Y331450D01*
X-474625D01*
X-473385Y330825D01*
X-472610Y329992D01*
X-472300Y328325D01*
X-472610Y326658D01*
X-473540Y325617D01*
X-474625Y324992D01*
X-478500D01*
G01X-474625D02*
X-472300Y318950D01*
G01X-464860Y331450D02*
X-461140D01*
G01X-463000D02*
Y318950D01*
G01X-464860D02*
X-461140D01*
G01X-453700Y331450D02*
Y318950D01*
X-447500D01*
G01X-441300Y331450D02*
Y318950D01*
X-435100D01*
G01X-409990Y330408D02*
X-410920Y331033D01*
X-412005Y331450D01*
X-413245D01*
X-414640Y330825D01*
X-415725Y329783D01*
X-416500Y328533D01*
X-417120Y326450D01*
X-417275Y324575D01*
X-416965Y322700D01*
X-416500Y321450D01*
X-415570Y320200D01*
X-414485Y319367D01*
X-413400Y318950D01*
X-412315D01*
X-411230Y319367D01*
X-410300Y319991D01*
X-409525Y320825D01*
G01X-404255Y318950D02*
Y331450D01*
G01X-397745D02*
Y318950D01*
G01Y325200D02*
X-404255D01*
G01X-392475Y318950D02*
X-388600Y331450D01*
X-384725Y318950D01*
G01X-386120Y323325D02*
X-391080D01*
G01X-379300Y318950D02*
Y331450D01*
X-375425D01*
X-374185Y330825D01*
X-373410Y329992D01*
X-373100Y328325D01*
X-373410Y326658D01*
X-374340Y325617D01*
X-375425Y324992D01*
X-379300D01*
G01X-375425D02*
X-373100Y318950D01*
G01X-363800Y331450D02*
Y318950D01*
G01X-367365Y331450D02*
X-360235D01*
G01X-351400Y318533D02*
X-351710Y318742D01*
Y319158D01*
X-351400Y319367D01*
X-351090Y319158D01*
Y318742D01*
X-351400Y318533D01*
G01Y324158D02*
X-351710Y324367D01*
Y324783D01*
X-351400Y324992D01*
X-351090Y324783D01*
Y324367D01*
X-351400Y324158D01*
G01X-326600Y331450D02*
Y318950D01*
G01X-330165Y331450D02*
X-323035D01*
G01X-314200Y318950D02*
X-315440Y319158D01*
X-316525Y319991D01*
X-317455Y321242D01*
X-318075Y322700D01*
X-318385Y324367D01*
Y326033D01*
X-318075Y327700D01*
X-317455Y329158D01*
X-316525Y330408D01*
X-315440Y331242D01*
X-314200Y331450D01*
X-312960Y331242D01*
X-311875Y330408D01*
X-310945Y329158D01*
X-310325Y327700D01*
X-310015Y326033D01*
Y324367D01*
X-310325Y322700D01*
X-310945Y321242D01*
X-311875Y319991D01*
X-312960Y319158D01*
X-314200Y318950D01*
G01X-304900D02*
Y331450D01*
X-301180D01*
X-299940Y330825D01*
X-299010Y329367D01*
X-298700Y327700D01*
X-299010Y326033D01*
X-299785Y324783D01*
X-301180Y324158D01*
X-304900D01*
G01X-277000Y331450D02*
Y318950D01*
G01X-279170Y327283D02*
X-274830D01*
G01X-264600Y318950D02*
X-265530Y319158D01*
X-266460Y319991D01*
X-267080Y321450D01*
X-267390Y323116D01*
X-267080Y324783D01*
X-266460Y326242D01*
X-265530Y327075D01*
X-264600Y327283D01*
X-263670Y327075D01*
X-262740Y326242D01*
X-262120Y324783D01*
X-261965Y323116D01*
X-262120Y321450D01*
X-262740Y319991D01*
X-263670Y319158D01*
X-264600Y318950D01*
G01X-238560Y325617D02*
X-237940Y326242D01*
X-237475Y327283D01*
X-237165Y328742D01*
X-237475Y329992D01*
X-238095Y330825D01*
X-239180Y331450D01*
X-243365D01*
Y318950D01*
X-238250D01*
X-237165Y319783D01*
X-236545Y321033D01*
X-236235Y322492D01*
X-236545Y323950D01*
X-237475Y325200D01*
X-238560Y325617D01*
X-243365D01*
G01X-227400Y318950D02*
X-228640Y319158D01*
X-229725Y319991D01*
X-230655Y321242D01*
X-231275Y322700D01*
X-231585Y324367D01*
Y326033D01*
X-231275Y327700D01*
X-230655Y329158D01*
X-229725Y330408D01*
X-228640Y331242D01*
X-227400Y331450D01*
X-226160Y331242D01*
X-225075Y330408D01*
X-224145Y329158D01*
X-223525Y327700D01*
X-223215Y326033D01*
Y324367D01*
X-223525Y322700D01*
X-224145Y321242D01*
X-225075Y319991D01*
X-226160Y319158D01*
X-227400Y318950D01*
G01X-215000Y331450D02*
Y318950D01*
G01X-218565Y331450D02*
X-211435D01*
G01X-202600D02*
Y318950D01*
G01X-206165Y331450D02*
X-199035D01*
G01X-190200Y318950D02*
X-191440Y319158D01*
X-192525Y319991D01*
X-193455Y321242D01*
X-194075Y322700D01*
X-194385Y324367D01*
Y326033D01*
X-194075Y327700D01*
X-193455Y329158D01*
X-192525Y330408D01*
X-191440Y331242D01*
X-190200Y331450D01*
X-188960Y331242D01*
X-187875Y330408D01*
X-186945Y329158D01*
X-186325Y327700D01*
X-186015Y326033D01*
Y324367D01*
X-186325Y322700D01*
X-186945Y321242D01*
X-187875Y319991D01*
X-188960Y319158D01*
X-190200Y318950D01*
G01X-181830D02*
Y331450D01*
X-177800Y321033D01*
X-173770Y331450D01*
Y318950D01*
G01X-467495Y268950D02*
Y281450D01*
X-461605D01*
G01X-463775Y275408D02*
X-467495D01*
G01X-454010Y281450D02*
X-450290D01*
G01X-452150D02*
Y268950D01*
G01X-454010D02*
X-450290D01*
G01X-443315D02*
Y281450D01*
X-436185Y268950D01*
Y281450D01*
G01X-429210D02*
X-425490D01*
G01X-427350D02*
Y268950D01*
G01X-429210D02*
X-425490D01*
G01X-418205Y270616D02*
X-416965Y269575D01*
X-415570Y268950D01*
X-414330D01*
X-413090Y269575D01*
X-412160Y270616D01*
X-411695Y272075D01*
X-412005Y273533D01*
X-412780Y274783D01*
X-414175Y275617D01*
X-416035Y276033D01*
X-417120Y276866D01*
X-417585Y278325D01*
X-417275Y279783D01*
X-416500Y280825D01*
X-415415Y281450D01*
X-414330D01*
X-413245Y281033D01*
X-412315Y279992D01*
G01X-405805Y268950D02*
Y281450D01*
G01X-399295D02*
Y268950D01*
G01Y275200D02*
X-405805D01*
G01X-387050Y268950D02*
X-393250D01*
Y281450D01*
X-387050D01*
G01X-389530Y275408D02*
X-393250D01*
G01X-381160Y268950D02*
Y281450D01*
X-378060D01*
X-376820Y280825D01*
X-375890Y279992D01*
X-375115Y278742D01*
X-374495Y277283D01*
X-374340Y275200D01*
X-374495Y273116D01*
X-375115Y271658D01*
X-375890Y270408D01*
X-376820Y269575D01*
X-378060Y268950D01*
X-381160D01*
G01X-370000Y264784D02*
X-360700D01*
G01X-356205Y270616D02*
X-354965Y269575D01*
X-353570Y268950D01*
X-352330D01*
X-351090Y269575D01*
X-350160Y270616D01*
X-349695Y272075D01*
X-350005Y273533D01*
X-350780Y274783D01*
X-352175Y275617D01*
X-354035Y276033D01*
X-355120Y276866D01*
X-355585Y278325D01*
X-355275Y279783D01*
X-354500Y280825D01*
X-353415Y281450D01*
X-352330D01*
X-351245Y281033D01*
X-350315Y279992D01*
G01X-342410Y281450D02*
X-338690D01*
G01X-340550D02*
Y268950D01*
G01X-342410D02*
X-338690D01*
G01X-331095Y281450D02*
X-325205D01*
X-331095Y268950D01*
X-325205D01*
G01X-312650D02*
X-318850D01*
Y281450D01*
X-312650D01*
G01X-315130Y275408D02*
X-318850D01*
G01X-460675Y293950D02*
X-456800Y306450D01*
X-452925Y293950D01*
G01X-454320Y298325D02*
X-459280D01*
G01X-447500Y306450D02*
Y293950D01*
X-441300D01*
G01X-435100Y306450D02*
Y293950D01*
X-428900D01*
G01X-410610Y306450D02*
Y297492D01*
X-409990Y295616D01*
X-408750Y294367D01*
X-407200Y293950D01*
X-405650Y294367D01*
X-404410Y295616D01*
X-403790Y297492D01*
Y306450D01*
G01X-398365Y293950D02*
Y306450D01*
X-391235Y293950D01*
Y306450D01*
G01X-384260D02*
X-380540D01*
G01X-382400D02*
Y293950D01*
G01X-384260D02*
X-380540D01*
G01X-370000Y306450D02*
Y293950D01*
G01X-373565Y306450D02*
X-366435D01*
G01X-360855Y295616D02*
X-359615Y294575D01*
X-358220Y293950D01*
X-356980D01*
X-355740Y294575D01*
X-354810Y295616D01*
X-354345Y297075D01*
X-354655Y298533D01*
X-355430Y299783D01*
X-356825Y300617D01*
X-358685Y301033D01*
X-359770Y301866D01*
X-360235Y303325D01*
X-359925Y304783D01*
X-359150Y305825D01*
X-358065Y306450D01*
X-356980D01*
X-355895Y306033D01*
X-354965Y304992D01*
G01X-336675Y293950D02*
X-332800Y306450D01*
X-328925Y293950D01*
G01X-330320Y298325D02*
X-335280D01*
G01X-323500Y293950D02*
Y306450D01*
X-319625D01*
X-318385Y305825D01*
X-317610Y304992D01*
X-317300Y303325D01*
X-317610Y301658D01*
X-318540Y300617D01*
X-319625Y299992D01*
X-323500D01*
G01X-319625D02*
X-317300Y293950D01*
G01X-304900D02*
X-311100D01*
Y306450D01*
X-304900D01*
G01X-307380Y300408D02*
X-311100D01*
G01X-285060Y306450D02*
X-281340D01*
G01X-283200D02*
Y293950D01*
G01X-285060D02*
X-281340D01*
G01X-274365D02*
Y306450D01*
X-267235Y293950D01*
Y306450D01*
G01X-250030Y293950D02*
Y306450D01*
X-246000Y296033D01*
X-241970Y306450D01*
Y293950D01*
G01X-235460Y306450D02*
X-231740D01*
G01X-233600D02*
Y293950D01*
G01X-235460D02*
X-231740D01*
G01X-224300Y306450D02*
Y293950D01*
X-218100D01*
G01X-212055Y295616D02*
X-210815Y294575D01*
X-209420Y293950D01*
X-208180D01*
X-206940Y294575D01*
X-206010Y295616D01*
X-205545Y297075D01*
X-205855Y298533D01*
X-206630Y299783D01*
X-208025Y300617D01*
X-209885Y301033D01*
X-210970Y301866D01*
X-211435Y303325D01*
X-211125Y304783D01*
X-210350Y305825D01*
X-209265Y306450D01*
X-208180D01*
X-207095Y306033D01*
X-206165Y304992D01*
G01X-408750Y243950D02*
Y256450D01*
X-410610Y253950D01*
G01Y243950D02*
X-406890D01*
G01X-399295Y249158D02*
X-398210Y250617D01*
X-397280Y251450D01*
X-396040Y251866D01*
X-394955Y251450D01*
X-394180Y250617D01*
X-393560Y249367D01*
X-393405Y247908D01*
X-393560Y246658D01*
X-394180Y245408D01*
X-395110Y244367D01*
X-396195Y243950D01*
X-397435Y244367D01*
X-398520Y245616D01*
X-399140Y247492D01*
X-399295Y249575D01*
X-398985Y252283D01*
X-398520Y253742D01*
X-397745Y255200D01*
X-396660Y256242D01*
X-395575Y256450D01*
X-394490Y256033D01*
X-393715Y254992D01*
G01X-383950Y243533D02*
X-384260Y243742D01*
Y244158D01*
X-383950Y244367D01*
X-383640Y244158D01*
Y243742D01*
X-383950Y243533D01*
G01X-371550Y256450D02*
X-372790Y256033D01*
X-373720Y254992D01*
X-374340Y253742D01*
X-374805Y252075D01*
X-374960Y250200D01*
X-374805Y248325D01*
X-374340Y246658D01*
X-373720Y245408D01*
X-372790Y244367D01*
X-371550Y243950D01*
X-370310Y244367D01*
X-369380Y245408D01*
X-368760Y246658D01*
X-368295Y248325D01*
X-368140Y250200D01*
X-368295Y252075D01*
X-368760Y253742D01*
X-369380Y254992D01*
X-370310Y256033D01*
X-371550Y256450D01*
G01X-389200Y-29867D02*
Y-32367D01*
G01X-389813Y-29867D02*
X-388587D01*
G01X-387000Y-32367D02*
X-387213Y-32325D01*
X-387400Y-32158D01*
X-387560Y-31908D01*
X-387667Y-31617D01*
X-387720Y-31283D01*
Y-30950D01*
X-387667Y-30617D01*
X-387560Y-30325D01*
X-387400Y-30075D01*
X-387213Y-29908D01*
X-387000Y-29867D01*
X-386787Y-29908D01*
X-386600Y-30075D01*
X-386440Y-30325D01*
X-386333Y-30617D01*
X-386280Y-30950D01*
Y-31283D01*
X-386333Y-31617D01*
X-386440Y-31908D01*
X-386600Y-32158D01*
X-386787Y-32325D01*
X-387000Y-32367D01*
G01X-384800Y-29867D02*
Y-32367D01*
G01X-385413Y-29867D02*
X-384187D01*
G01X-383267Y-32367D02*
X-382600Y-29867D01*
X-381933Y-32367D01*
G01X-382173Y-31492D02*
X-383027D01*
G01X-380933Y-29867D02*
Y-32367D01*
X-379867D01*
G01X-376000Y-29867D02*
Y-32367D01*
G01X-376613Y-29867D02*
X-375387D01*
G01X-374360Y-32367D02*
Y-29867D01*
G01X-373240D02*
Y-32367D01*
G01Y-31117D02*
X-374360D01*
G01X-371920Y-29867D02*
X-371280D01*
G01X-371600D02*
Y-32367D01*
G01X-371920D02*
X-371280D01*
G01X-368813Y-30075D02*
X-368973Y-29950D01*
X-369160Y-29867D01*
X-369373D01*
X-369613Y-29992D01*
X-369800Y-30200D01*
X-369933Y-30450D01*
X-370040Y-30867D01*
X-370067Y-31242D01*
X-370013Y-31617D01*
X-369933Y-31867D01*
X-369773Y-32117D01*
X-369587Y-32283D01*
X-369400Y-32367D01*
X-369213D01*
X-369027Y-32283D01*
X-368867Y-32158D01*
X-368733Y-31992D01*
G01X-367787Y-32367D02*
Y-29867D01*
G01X-366773D02*
X-367787Y-31408D01*
G01X-366613Y-32367D02*
X-367333Y-30700D01*
G01X-365613Y-32367D02*
Y-29867D01*
X-364387Y-32367D01*
Y-29867D01*
G01X-362267Y-32367D02*
X-363333D01*
Y-29867D01*
X-362267D01*
G01X-362693Y-31075D02*
X-363333D01*
G01X-361160Y-32033D02*
X-360947Y-32242D01*
X-360707Y-32367D01*
X-360493D01*
X-360280Y-32242D01*
X-360120Y-32033D01*
X-360040Y-31742D01*
X-360093Y-31450D01*
X-360227Y-31200D01*
X-360467Y-31033D01*
X-360787Y-30950D01*
X-360973Y-30783D01*
X-361053Y-30492D01*
X-361000Y-30200D01*
X-360867Y-29992D01*
X-360680Y-29867D01*
X-360493D01*
X-360307Y-29950D01*
X-360147Y-30158D01*
G01X-358960Y-32033D02*
X-358747Y-32242D01*
X-358507Y-32367D01*
X-358293D01*
X-358080Y-32242D01*
X-357920Y-32033D01*
X-357840Y-31742D01*
X-357893Y-31450D01*
X-358027Y-31200D01*
X-358267Y-31033D01*
X-358587Y-30950D01*
X-358773Y-30783D01*
X-358853Y-30492D01*
X-358800Y-30200D01*
X-358667Y-29992D01*
X-358480Y-29867D01*
X-358293D01*
X-358107Y-29950D01*
X-357947Y-30158D01*
G01X-354507Y-31325D02*
X-354320Y-31033D01*
X-354160Y-30867D01*
X-353947Y-30783D01*
X-353760Y-30867D01*
X-353627Y-31033D01*
X-353520Y-31283D01*
X-353493Y-31575D01*
X-353520Y-31825D01*
X-353627Y-32075D01*
X-353787Y-32283D01*
X-353973Y-32367D01*
X-354187Y-32283D01*
X-354373Y-32033D01*
X-354480Y-31658D01*
X-354507Y-31242D01*
X-354453Y-30700D01*
X-354373Y-30408D01*
X-354240Y-30117D01*
X-354053Y-29908D01*
X-353867Y-29867D01*
X-353680Y-29950D01*
X-353547Y-30158D01*
G01X-351480Y-32367D02*
Y-29867D01*
X-352467Y-31658D01*
X-351133D01*
G01X-349600Y-32450D02*
X-349653Y-32408D01*
Y-32325D01*
X-349600Y-32283D01*
X-349547Y-32325D01*
Y-32408D01*
X-349600Y-32450D01*
G01X-347080Y-32367D02*
Y-29867D01*
X-348067Y-31658D01*
X-346733D01*
G01X-345200Y-29867D02*
X-345413Y-29950D01*
X-345573Y-30158D01*
X-345680Y-30408D01*
X-345760Y-30742D01*
X-345787Y-31117D01*
X-345760Y-31492D01*
X-345680Y-31825D01*
X-345573Y-32075D01*
X-345413Y-32283D01*
X-345200Y-32367D01*
X-344987Y-32283D01*
X-344827Y-32075D01*
X-344720Y-31825D01*
X-344640Y-31492D01*
X-344613Y-31117D01*
X-344640Y-30742D01*
X-344720Y-30408D01*
X-344827Y-30158D01*
X-344987Y-29950D01*
X-345200Y-29867D01*
G01X-343453Y-32075D02*
X-343267Y-32283D01*
X-343053Y-32367D01*
X-342840Y-32283D01*
X-342653Y-32033D01*
X-342520Y-31658D01*
X-342467Y-31283D01*
Y-30825D01*
X-342520Y-30450D01*
X-342653Y-30117D01*
X-342813Y-29950D01*
X-343000Y-29867D01*
X-343213Y-29950D01*
X-343373Y-30117D01*
X-343480Y-30367D01*
X-343533Y-30700D01*
X-343480Y-30992D01*
X-343347Y-31283D01*
X-343187Y-31450D01*
X-343000Y-31492D01*
X-342787Y-31408D01*
X-342627Y-31200D01*
X-342467Y-30825D01*
G01X-340480Y-32367D02*
Y-29867D01*
X-341467Y-31658D01*
X-340133D01*
G01X-337093Y-32367D02*
Y-29867D01*
X-336400Y-31950D01*
X-335707Y-29867D01*
Y-32367D01*
G01X-334520Y-29867D02*
X-333880D01*
G01X-334200D02*
Y-32367D01*
G01X-334520D02*
X-333880D01*
G01X-332533Y-29867D02*
Y-32367D01*
X-331467D01*
G01X-388687Y-27867D02*
Y-25367D01*
X-388153D01*
X-387940Y-25492D01*
X-387780Y-25658D01*
X-387647Y-25908D01*
X-387540Y-26200D01*
X-387513Y-26617D01*
X-387540Y-27033D01*
X-387647Y-27325D01*
X-387780Y-27575D01*
X-387940Y-27742D01*
X-388153Y-27867D01*
X-388687D01*
G01X-385367D02*
X-386433D01*
Y-25367D01*
X-385367D01*
G01X-385793Y-26575D02*
X-386433D01*
G01X-384260Y-27533D02*
X-384047Y-27742D01*
X-383807Y-27867D01*
X-383593D01*
X-383380Y-27742D01*
X-383220Y-27533D01*
X-383140Y-27242D01*
X-383193Y-26950D01*
X-383327Y-26700D01*
X-383567Y-26533D01*
X-383887Y-26450D01*
X-384073Y-26283D01*
X-384153Y-25992D01*
X-384100Y-25700D01*
X-383967Y-25492D01*
X-383780Y-25367D01*
X-383593D01*
X-383407Y-25450D01*
X-383247Y-25658D01*
G01X-381820Y-25367D02*
X-381180D01*
G01X-381500D02*
Y-27867D01*
G01X-381820D02*
X-381180D01*
G01X-379140Y-26617D02*
X-378607D01*
Y-27367D01*
X-378767Y-27617D01*
X-378953Y-27783D01*
X-379220Y-27867D01*
X-379487Y-27783D01*
X-379673Y-27617D01*
X-379833Y-27367D01*
X-379940Y-27075D01*
X-379993Y-26742D01*
Y-26450D01*
X-379940Y-26200D01*
X-379833Y-25908D01*
X-379673Y-25658D01*
X-379513Y-25492D01*
X-379300Y-25367D01*
X-379113D01*
X-378900Y-25450D01*
X-378740Y-25617D01*
G01X-377713Y-27867D02*
Y-25367D01*
X-376487Y-27867D01*
Y-25367D01*
G01X-372113Y-25575D02*
X-372273Y-25450D01*
X-372460Y-25367D01*
X-372673D01*
X-372913Y-25492D01*
X-373100Y-25700D01*
X-373233Y-25950D01*
X-373340Y-26367D01*
X-373367Y-26742D01*
X-373313Y-27117D01*
X-373233Y-27367D01*
X-373073Y-27617D01*
X-372887Y-27783D01*
X-372700Y-27867D01*
X-372513D01*
X-372327Y-27783D01*
X-372167Y-27658D01*
X-372033Y-27492D01*
G01X-371033Y-27867D02*
Y-25367D01*
X-370367D01*
X-370153Y-25492D01*
X-370020Y-25658D01*
X-369967Y-25992D01*
X-370020Y-26325D01*
X-370180Y-26533D01*
X-370367Y-26658D01*
X-371033D01*
G01X-370367D02*
X-369967Y-27867D01*
G01X-368300D02*
X-368513Y-27825D01*
X-368700Y-27658D01*
X-368860Y-27408D01*
X-368967Y-27117D01*
X-369020Y-26783D01*
Y-26450D01*
X-368967Y-26117D01*
X-368860Y-25825D01*
X-368700Y-25575D01*
X-368513Y-25408D01*
X-368300Y-25367D01*
X-368087Y-25408D01*
X-367900Y-25575D01*
X-367740Y-25825D01*
X-367633Y-26117D01*
X-367580Y-26450D01*
Y-26783D01*
X-367633Y-27117D01*
X-367740Y-27408D01*
X-367900Y-27658D01*
X-368087Y-27825D01*
X-368300Y-27867D01*
G01X-366660Y-27533D02*
X-366447Y-27742D01*
X-366207Y-27867D01*
X-365993D01*
X-365780Y-27742D01*
X-365620Y-27533D01*
X-365540Y-27242D01*
X-365593Y-26950D01*
X-365727Y-26700D01*
X-365967Y-26533D01*
X-366287Y-26450D01*
X-366473Y-26283D01*
X-366553Y-25992D01*
X-366500Y-25700D01*
X-366367Y-25492D01*
X-366180Y-25367D01*
X-365993D01*
X-365807Y-25450D01*
X-365647Y-25658D01*
G01X-364460Y-27533D02*
X-364247Y-27742D01*
X-364007Y-27867D01*
X-363793D01*
X-363580Y-27742D01*
X-363420Y-27533D01*
X-363340Y-27242D01*
X-363393Y-26950D01*
X-363527Y-26700D01*
X-363767Y-26533D01*
X-364087Y-26450D01*
X-364273Y-26283D01*
X-364353Y-25992D01*
X-364300Y-25700D01*
X-364167Y-25492D01*
X-363980Y-25367D01*
X-363793D01*
X-363607Y-25450D01*
X-363447Y-25658D01*
G01X-360060Y-27533D02*
X-359847Y-27742D01*
X-359607Y-27867D01*
X-359393D01*
X-359180Y-27742D01*
X-359020Y-27533D01*
X-358940Y-27242D01*
X-358993Y-26950D01*
X-359127Y-26700D01*
X-359367Y-26533D01*
X-359687Y-26450D01*
X-359873Y-26283D01*
X-359953Y-25992D01*
X-359900Y-25700D01*
X-359767Y-25492D01*
X-359580Y-25367D01*
X-359393D01*
X-359207Y-25450D01*
X-359047Y-25658D01*
G01X-356767Y-27867D02*
X-357833D01*
Y-25367D01*
X-356767D01*
G01X-357193Y-26575D02*
X-357833D01*
G01X-354513Y-25575D02*
X-354673Y-25450D01*
X-354860Y-25367D01*
X-355073D01*
X-355313Y-25492D01*
X-355500Y-25700D01*
X-355633Y-25950D01*
X-355740Y-26367D01*
X-355767Y-26742D01*
X-355713Y-27117D01*
X-355633Y-27367D01*
X-355473Y-27617D01*
X-355287Y-27783D01*
X-355100Y-27867D01*
X-354913D01*
X-354727Y-27783D01*
X-354567Y-27658D01*
X-354433Y-27492D01*
G01X-352900Y-25367D02*
Y-27867D01*
G01X-353513Y-25367D02*
X-352287D01*
G01X-351020D02*
X-350380D01*
G01X-350700D02*
Y-27867D01*
G01X-351020D02*
X-350380D01*
G01X-348500D02*
X-348713Y-27825D01*
X-348900Y-27658D01*
X-349060Y-27408D01*
X-349167Y-27117D01*
X-349220Y-26783D01*
Y-26450D01*
X-349167Y-26117D01*
X-349060Y-25825D01*
X-348900Y-25575D01*
X-348713Y-25408D01*
X-348500Y-25367D01*
X-348287Y-25408D01*
X-348100Y-25575D01*
X-347940Y-25825D01*
X-347833Y-26117D01*
X-347780Y-26450D01*
Y-26783D01*
X-347833Y-27117D01*
X-347940Y-27408D01*
X-348100Y-27658D01*
X-348287Y-27825D01*
X-348500Y-27867D01*
G01X-346913D02*
Y-25367D01*
X-345687Y-27867D01*
Y-25367D01*
G01X-341313Y-25575D02*
X-341473Y-25450D01*
X-341660Y-25367D01*
X-341873D01*
X-342113Y-25492D01*
X-342300Y-25700D01*
X-342433Y-25950D01*
X-342540Y-26367D01*
X-342567Y-26742D01*
X-342513Y-27117D01*
X-342433Y-27367D01*
X-342273Y-27617D01*
X-342087Y-27783D01*
X-341900Y-27867D01*
X-341713D01*
X-341527Y-27783D01*
X-341367Y-27658D01*
X-341233Y-27492D01*
G01X-340260Y-27867D02*
Y-25367D01*
G01X-339140D02*
Y-27867D01*
G01Y-26617D02*
X-340260D01*
G01X-338167Y-27867D02*
X-337500Y-25367D01*
X-336833Y-27867D01*
G01X-337073Y-26992D02*
X-337927D01*
G01X-335833Y-27867D02*
Y-25367D01*
X-335167D01*
X-334953Y-25492D01*
X-334820Y-25658D01*
X-334767Y-25992D01*
X-334820Y-26325D01*
X-334980Y-26533D01*
X-335167Y-26658D01*
X-335833D01*
G01X-335167D02*
X-334767Y-27867D01*
G01X-333100Y-25367D02*
Y-27867D01*
G01X-333713Y-25367D02*
X-332487D01*
G01X-390000Y-28700D02*
X-388400D01*
G01X-387800D02*
X-386200D01*
G01X-385600D02*
X-384000D01*
G01X-383400D02*
X-381800D01*
G01X-381200D02*
X-379600D01*
G01X-379000D02*
X-377400D01*
G01X-376800D02*
X-375200D01*
G01X-374600D02*
X-373000D01*
G01X-372400D02*
X-370800D01*
G01X-370200D02*
X-368600D01*
G01X-368000D02*
X-366400D01*
G01X-365800D02*
X-364200D01*
G01X-363600D02*
X-362000D01*
G01X-361400D02*
X-359800D01*
G01X-359200D02*
X-357600D01*
G01X-357000D02*
X-355400D01*
G01X-354800D02*
X-353200D01*
G01X-352600D02*
X-351000D01*
G01X-350400D02*
X-348800D01*
G01X-348200D02*
X-346600D01*
G01X-346000D02*
X-344400D01*
G01X-343800D02*
X-342200D01*
G01X-341600D02*
X-340000D01*
G01X-339400D02*
X-337800D01*
G01X-337200D02*
X-335600D01*
G01X-335000D02*
X-333400D01*
G01X-332800D02*
X-331200D01*
G01X-390600Y-15367D02*
Y179909D01*
X-330600D01*
Y-15367D01*
X-390600D01*
G01X-363100Y185406D02*
X-365600D01*
X-365100Y185086D01*
G01X-363100D02*
Y185726D01*
G01X-363933Y187259D02*
Y187952D01*
G01X-365183Y189299D02*
X-365433Y189459D01*
X-365558Y189646D01*
X-365600Y189859D01*
X-365517Y190126D01*
X-365308Y190312D01*
X-365058Y190366D01*
X-364808Y190339D01*
X-364600Y190232D01*
X-364183Y189699D01*
X-363892Y189459D01*
X-363475Y189299D01*
X-363100Y189246D01*
Y190366D01*
G01X-328133Y-16200D02*
Y-18700D01*
X-327067D01*
G01X-325907Y-16617D02*
X-325747Y-16367D01*
X-325560Y-16242D01*
X-325347Y-16200D01*
X-325080Y-16283D01*
X-324893Y-16492D01*
X-324840Y-16742D01*
X-324867Y-16992D01*
X-324973Y-17200D01*
X-325507Y-17617D01*
X-325747Y-17908D01*
X-325907Y-18325D01*
X-325960Y-18700D01*
X-324840D01*
G01X-320787Y-17367D02*
X-320680Y-17242D01*
X-320600Y-17034D01*
X-320547Y-16742D01*
X-320600Y-16492D01*
X-320707Y-16325D01*
X-320893Y-16200D01*
X-321613D01*
Y-18700D01*
X-320733D01*
X-320547Y-18534D01*
X-320440Y-18283D01*
X-320387Y-17992D01*
X-320440Y-17700D01*
X-320600Y-17450D01*
X-320787Y-17367D01*
X-321613D01*
G01X-318800Y-18700D02*
X-319013Y-18658D01*
X-319200Y-18492D01*
X-319360Y-18242D01*
X-319467Y-17950D01*
X-319520Y-17617D01*
Y-17283D01*
X-319467Y-16950D01*
X-319360Y-16658D01*
X-319200Y-16408D01*
X-319013Y-16242D01*
X-318800Y-16200D01*
X-318587Y-16242D01*
X-318400Y-16408D01*
X-318240Y-16658D01*
X-318133Y-16950D01*
X-318080Y-17283D01*
Y-17617D01*
X-318133Y-17950D01*
X-318240Y-18242D01*
X-318400Y-18492D01*
X-318587Y-18658D01*
X-318800Y-18700D01*
G01X-316600Y-16200D02*
Y-18700D01*
G01X-317213Y-16200D02*
X-315987D01*
G01X-314400D02*
Y-18700D01*
G01X-315013Y-16200D02*
X-313787D01*
G01X-312200Y-18700D02*
X-312413Y-18658D01*
X-312600Y-18492D01*
X-312760Y-18242D01*
X-312867Y-17950D01*
X-312920Y-17617D01*
Y-17283D01*
X-312867Y-16950D01*
X-312760Y-16658D01*
X-312600Y-16408D01*
X-312413Y-16242D01*
X-312200Y-16200D01*
X-311987Y-16242D01*
X-311800Y-16408D01*
X-311640Y-16658D01*
X-311533Y-16950D01*
X-311480Y-17283D01*
Y-17617D01*
X-311533Y-17950D01*
X-311640Y-18242D01*
X-311800Y-18492D01*
X-311987Y-18658D01*
X-312200Y-18700D01*
G01X-310693D02*
Y-16200D01*
X-310000Y-18283D01*
X-309307Y-16200D01*
Y-18700D01*
G01X-305013Y-16408D02*
X-305173Y-16283D01*
X-305360Y-16200D01*
X-305573D01*
X-305813Y-16325D01*
X-306000Y-16533D01*
X-306133Y-16784D01*
X-306240Y-17200D01*
X-306267Y-17575D01*
X-306213Y-17950D01*
X-306133Y-18200D01*
X-305973Y-18450D01*
X-305787Y-18617D01*
X-305600Y-18700D01*
X-305413D01*
X-305227Y-18617D01*
X-305067Y-18492D01*
X-304933Y-18325D01*
G01X-303400Y-18700D02*
X-303613Y-18658D01*
X-303800Y-18492D01*
X-303960Y-18242D01*
X-304067Y-17950D01*
X-304120Y-17617D01*
Y-17283D01*
X-304067Y-16950D01*
X-303960Y-16658D01*
X-303800Y-16408D01*
X-303613Y-16242D01*
X-303400Y-16200D01*
X-303187Y-16242D01*
X-303000Y-16408D01*
X-302840Y-16658D01*
X-302733Y-16950D01*
X-302680Y-17283D01*
Y-17617D01*
X-302733Y-17950D01*
X-302840Y-18242D01*
X-303000Y-18492D01*
X-303187Y-18658D01*
X-303400Y-18700D01*
G01X-301813D02*
Y-16200D01*
X-300587Y-18700D01*
Y-16200D01*
G01X-299587Y-18700D02*
Y-16200D01*
X-299053D01*
X-298840Y-16325D01*
X-298680Y-16492D01*
X-298547Y-16742D01*
X-298440Y-17034D01*
X-298413Y-17450D01*
X-298440Y-17867D01*
X-298547Y-18159D01*
X-298680Y-18408D01*
X-298840Y-18575D01*
X-299053Y-18700D01*
X-299587D01*
G01X-297387Y-16200D02*
Y-17992D01*
X-297280Y-18367D01*
X-297067Y-18617D01*
X-296800Y-18700D01*
X-296533Y-18617D01*
X-296320Y-18367D01*
X-296213Y-17992D01*
Y-16200D01*
G01X-294013Y-16408D02*
X-294173Y-16283D01*
X-294360Y-16200D01*
X-294573D01*
X-294813Y-16325D01*
X-295000Y-16533D01*
X-295133Y-16784D01*
X-295240Y-17200D01*
X-295267Y-17575D01*
X-295213Y-17950D01*
X-295133Y-18200D01*
X-294973Y-18450D01*
X-294787Y-18617D01*
X-294600Y-18700D01*
X-294413D01*
X-294227Y-18617D01*
X-294067Y-18492D01*
X-293933Y-18325D01*
G01X-292400Y-16200D02*
Y-18700D01*
G01X-293013Y-16200D02*
X-291787D01*
G01X-290200Y-18700D02*
X-290413Y-18658D01*
X-290600Y-18492D01*
X-290760Y-18242D01*
X-290867Y-17950D01*
X-290920Y-17617D01*
Y-17283D01*
X-290867Y-16950D01*
X-290760Y-16658D01*
X-290600Y-16408D01*
X-290413Y-16242D01*
X-290200Y-16200D01*
X-289987Y-16242D01*
X-289800Y-16408D01*
X-289640Y-16658D01*
X-289533Y-16950D01*
X-289480Y-17283D01*
Y-17617D01*
X-289533Y-17950D01*
X-289640Y-18242D01*
X-289800Y-18492D01*
X-289987Y-18658D01*
X-290200Y-18700D01*
G01X-288533D02*
Y-16200D01*
X-287867D01*
X-287653Y-16325D01*
X-287520Y-16492D01*
X-287467Y-16825D01*
X-287520Y-17158D01*
X-287680Y-17367D01*
X-287867Y-17492D01*
X-288533D01*
G01X-287867D02*
X-287467Y-18700D01*
G01X-323787Y-22117D02*
X-322613Y-20283D01*
G01X-323200Y-19950D02*
Y-22450D01*
G01X-322613Y-22117D02*
X-323787Y-20283D01*
G01X-324000Y-21200D02*
X-322400D01*
G01X-317160Y-21700D02*
X-316947Y-21908D01*
X-316707Y-22033D01*
X-316493D01*
X-316280Y-21908D01*
X-316120Y-21700D01*
X-316040Y-21408D01*
X-316093Y-21117D01*
X-316227Y-20867D01*
X-316467Y-20700D01*
X-316787Y-20617D01*
X-316973Y-20450D01*
X-317053Y-20158D01*
X-317000Y-19867D01*
X-316867Y-19658D01*
X-316680Y-19533D01*
X-316493D01*
X-316307Y-19617D01*
X-316147Y-19825D01*
G01X-314987Y-19533D02*
Y-21325D01*
X-314880Y-21700D01*
X-314667Y-21950D01*
X-314400Y-22033D01*
X-314133Y-21950D01*
X-313920Y-21700D01*
X-313813Y-21325D01*
Y-19533D01*
G01X-312733Y-22033D02*
Y-19533D01*
X-312067D01*
X-311853Y-19658D01*
X-311720Y-19825D01*
X-311667Y-20158D01*
X-311720Y-20492D01*
X-311880Y-20700D01*
X-312067Y-20825D01*
X-312733D01*
G01X-312067D02*
X-311667Y-22033D01*
G01X-310507D02*
Y-19533D01*
X-309493D01*
G01X-309867Y-20742D02*
X-310507D01*
G01X-308467Y-22033D02*
X-307800Y-19533D01*
X-307133Y-22033D01*
G01X-307373Y-21158D02*
X-308227D01*
G01X-305013Y-19742D02*
X-305173Y-19617D01*
X-305360Y-19533D01*
X-305573D01*
X-305813Y-19658D01*
X-306000Y-19867D01*
X-306133Y-20117D01*
X-306240Y-20533D01*
X-306267Y-20908D01*
X-306213Y-21283D01*
X-306133Y-21533D01*
X-305973Y-21784D01*
X-305787Y-21950D01*
X-305600Y-22033D01*
X-305413D01*
X-305227Y-21950D01*
X-305067Y-21825D01*
X-304933Y-21658D01*
G01X-302867Y-22033D02*
X-303933D01*
Y-19533D01*
X-302867D01*
G01X-303293Y-20742D02*
X-303933D01*
G01X-323787Y82188D02*
X-322613Y84021D01*
G01X-323200Y84354D02*
Y81854D01*
G01X-322613Y82188D02*
X-323787Y84021D01*
G01X-324000Y83104D02*
X-322400D01*
G01X-317187Y82271D02*
Y84771D01*
X-316653D01*
X-316440Y84646D01*
X-316280Y84479D01*
X-316147Y84229D01*
X-316040Y83938D01*
X-316013Y83521D01*
X-316040Y83104D01*
X-316147Y82813D01*
X-316280Y82563D01*
X-316440Y82396D01*
X-316653Y82271D01*
X-317187D01*
G01X-314720Y84771D02*
X-314080D01*
G01X-314400D02*
Y82271D01*
G01X-314720D02*
X-314080D01*
G01X-311667D02*
X-312733D01*
Y84771D01*
X-311667D01*
G01X-312093Y83563D02*
X-312733D01*
G01X-310533Y84771D02*
Y82271D01*
X-309467D01*
G01X-307267D02*
X-308333D01*
Y84771D01*
X-307267D01*
G01X-307693Y83563D02*
X-308333D01*
G01X-305013Y84563D02*
X-305173Y84688D01*
X-305360Y84771D01*
X-305573D01*
X-305813Y84646D01*
X-306000Y84438D01*
X-306133Y84188D01*
X-306240Y83771D01*
X-306267Y83396D01*
X-306213Y83021D01*
X-306133Y82771D01*
X-305973Y82521D01*
X-305787Y82354D01*
X-305600Y82271D01*
X-305413D01*
X-305227Y82354D01*
X-305067Y82479D01*
X-304933Y82646D01*
G01X-303400Y84771D02*
Y82271D01*
G01X-304013Y84771D02*
X-302787D01*
G01X-301733Y82271D02*
Y84771D01*
X-301067D01*
X-300853Y84646D01*
X-300720Y84479D01*
X-300667Y84146D01*
X-300720Y83813D01*
X-300880Y83604D01*
X-301067Y83479D01*
X-301733D01*
G01X-301067D02*
X-300667Y82271D01*
G01X-299320Y84771D02*
X-298680D01*
G01X-299000D02*
Y82271D01*
G01X-299320D02*
X-298680D01*
G01X-296213Y84563D02*
X-296373Y84688D01*
X-296560Y84771D01*
X-296773D01*
X-297013Y84646D01*
X-297200Y84438D01*
X-297333Y84188D01*
X-297440Y83771D01*
X-297467Y83396D01*
X-297413Y83021D01*
X-297333Y82771D01*
X-297173Y82521D01*
X-296987Y82354D01*
X-296800Y82271D01*
X-296613D01*
X-296427Y82354D01*
X-296267Y82479D01*
X-296133Y82646D01*
G01X-328133Y181272D02*
Y178772D01*
X-327067D01*
G01X-325400D02*
Y181272D01*
X-325720Y180772D01*
G01Y178772D02*
X-325080D01*
G01X-321000Y181272D02*
Y178772D01*
G01X-321613Y181272D02*
X-320387D01*
G01X-318800Y178772D02*
X-319013Y178814D01*
X-319200Y178980D01*
X-319360Y179230D01*
X-319467Y179522D01*
X-319520Y179856D01*
Y180189D01*
X-319467Y180522D01*
X-319360Y180814D01*
X-319200Y181064D01*
X-319013Y181230D01*
X-318800Y181272D01*
X-318587Y181230D01*
X-318400Y181064D01*
X-318240Y180814D01*
X-318133Y180522D01*
X-318080Y180189D01*
Y179856D01*
X-318133Y179522D01*
X-318240Y179230D01*
X-318400Y178980D01*
X-318587Y178814D01*
X-318800Y178772D01*
G01X-317133D02*
Y181272D01*
X-316493D01*
X-316280Y181147D01*
X-316120Y180856D01*
X-316067Y180522D01*
X-316120Y180189D01*
X-316253Y179939D01*
X-316493Y179814D01*
X-317133D01*
G01X-311613Y181064D02*
X-311773Y181189D01*
X-311960Y181272D01*
X-312173D01*
X-312413Y181147D01*
X-312600Y180939D01*
X-312733Y180689D01*
X-312840Y180272D01*
X-312867Y179897D01*
X-312813Y179522D01*
X-312733Y179272D01*
X-312573Y179022D01*
X-312387Y178856D01*
X-312200Y178772D01*
X-312013D01*
X-311827Y178856D01*
X-311667Y178980D01*
X-311533Y179147D01*
G01X-310000Y178772D02*
X-310213Y178814D01*
X-310400Y178980D01*
X-310560Y179230D01*
X-310667Y179522D01*
X-310720Y179856D01*
Y180189D01*
X-310667Y180522D01*
X-310560Y180814D01*
X-310400Y181064D01*
X-310213Y181230D01*
X-310000Y181272D01*
X-309787Y181230D01*
X-309600Y181064D01*
X-309440Y180814D01*
X-309333Y180522D01*
X-309280Y180189D01*
Y179856D01*
X-309333Y179522D01*
X-309440Y179230D01*
X-309600Y178980D01*
X-309787Y178814D01*
X-310000Y178772D01*
G01X-308413D02*
Y181272D01*
X-307187Y178772D01*
Y181272D01*
G01X-306187Y178772D02*
Y181272D01*
X-305653D01*
X-305440Y181147D01*
X-305280Y180980D01*
X-305147Y180731D01*
X-305040Y180439D01*
X-305013Y180022D01*
X-305040Y179606D01*
X-305147Y179314D01*
X-305280Y179064D01*
X-305440Y178897D01*
X-305653Y178772D01*
X-306187D01*
G01X-303987Y181272D02*
Y179481D01*
X-303880Y179106D01*
X-303667Y178856D01*
X-303400Y178772D01*
X-303133Y178856D01*
X-302920Y179106D01*
X-302813Y179481D01*
Y181272D01*
G01X-300613Y181064D02*
X-300773Y181189D01*
X-300960Y181272D01*
X-301173D01*
X-301413Y181147D01*
X-301600Y180939D01*
X-301733Y180689D01*
X-301840Y180272D01*
X-301867Y179897D01*
X-301813Y179522D01*
X-301733Y179272D01*
X-301573Y179022D01*
X-301387Y178856D01*
X-301200Y178772D01*
X-301013D01*
X-300827Y178856D01*
X-300667Y178980D01*
X-300533Y179147D01*
G01X-299000Y181272D02*
Y178772D01*
G01X-299613Y181272D02*
X-298387D01*
G01X-296800Y178772D02*
X-297013Y178814D01*
X-297200Y178980D01*
X-297360Y179230D01*
X-297467Y179522D01*
X-297520Y179856D01*
Y180189D01*
X-297467Y180522D01*
X-297360Y180814D01*
X-297200Y181064D01*
X-297013Y181230D01*
X-296800Y181272D01*
X-296587Y181230D01*
X-296400Y181064D01*
X-296240Y180814D01*
X-296133Y180522D01*
X-296080Y180189D01*
Y179856D01*
X-296133Y179522D01*
X-296240Y179230D01*
X-296400Y178980D01*
X-296587Y178814D01*
X-296800Y178772D01*
G01X-295133D02*
Y181272D01*
X-294467D01*
X-294253Y181147D01*
X-294120Y180980D01*
X-294067Y180647D01*
X-294120Y180314D01*
X-294280Y180106D01*
X-294467Y179980D01*
X-295133D01*
G01X-294467D02*
X-294067Y178772D01*
G01X-323787Y182856D02*
X-322613Y184689D01*
G01X-323200Y185022D02*
Y182522D01*
G01X-322613Y182856D02*
X-323787Y184689D01*
G01X-324000Y183772D02*
X-322400D01*
G01X-317160Y183272D02*
X-316947Y183064D01*
X-316707Y182939D01*
X-316493D01*
X-316280Y183064D01*
X-316120Y183272D01*
X-316040Y183564D01*
X-316093Y183855D01*
X-316227Y184105D01*
X-316467Y184272D01*
X-316787Y184356D01*
X-316973Y184522D01*
X-317053Y184814D01*
X-317000Y185106D01*
X-316867Y185314D01*
X-316680Y185439D01*
X-316493D01*
X-316307Y185356D01*
X-316147Y185147D01*
G01X-314987Y185439D02*
Y183647D01*
X-314880Y183272D01*
X-314667Y183022D01*
X-314400Y182939D01*
X-314133Y183022D01*
X-313920Y183272D01*
X-313813Y183647D01*
Y185439D01*
G01X-312733Y182939D02*
Y185439D01*
X-312067D01*
X-311853Y185314D01*
X-311720Y185147D01*
X-311667Y184814D01*
X-311720Y184480D01*
X-311880Y184272D01*
X-312067Y184147D01*
X-312733D01*
G01X-312067D02*
X-311667Y182939D01*
G01X-310507D02*
Y185439D01*
X-309493D01*
G01X-309867Y184230D02*
X-310507D01*
G01X-308467Y182939D02*
X-307800Y185439D01*
X-307133Y182939D01*
G01X-307373Y183814D02*
X-308227D01*
G01X-305013Y185230D02*
X-305173Y185356D01*
X-305360Y185439D01*
X-305573D01*
X-305813Y185314D01*
X-306000Y185106D01*
X-306133Y184855D01*
X-306240Y184439D01*
X-306267Y184064D01*
X-306213Y183689D01*
X-306133Y183439D01*
X-305973Y183189D01*
X-305787Y183022D01*
X-305600Y182939D01*
X-305413D01*
X-305227Y183022D01*
X-305067Y183147D01*
X-304933Y183314D01*
G01X-302867Y182939D02*
X-303933D01*
Y185439D01*
X-302867D01*
G01X-303293Y184230D02*
X-303933D01*
G01X-259950Y243950D02*
Y256450D01*
X-256230D01*
X-254990Y255825D01*
X-254060Y254367D01*
X-253750Y252700D01*
X-254060Y251033D01*
X-254835Y249783D01*
X-256230Y249158D01*
X-259950D01*
G01X-247550Y256450D02*
Y243950D01*
X-241350D01*
G01X-235925D02*
X-232050Y256450D01*
X-228175Y243950D01*
G01X-229570Y248325D02*
X-234530D01*
G01X-219650Y256450D02*
Y243950D01*
G01X-223215Y256450D02*
X-216085D01*
G01X-204150Y243950D02*
X-210350D01*
Y256450D01*
X-204150D01*
G01X-206630Y250408D02*
X-210350D01*
G01X-198260Y243950D02*
Y256450D01*
X-195160D01*
X-193920Y255825D01*
X-192990Y254992D01*
X-192215Y253742D01*
X-191595Y252283D01*
X-191440Y250200D01*
X-191595Y248116D01*
X-192215Y246658D01*
X-192990Y245408D01*
X-193920Y244575D01*
X-195160Y243950D01*
X-198260D01*
G01X-289400Y287700D02*
Y237700D01*
G01X-259950Y268950D02*
Y281450D01*
X-256230D01*
X-254990Y280825D01*
X-254060Y279367D01*
X-253750Y277700D01*
X-254060Y276033D01*
X-254835Y274783D01*
X-256230Y274158D01*
X-259950D01*
G01X-247550Y281450D02*
Y268950D01*
X-241350D01*
G01X-235925D02*
X-232050Y281450D01*
X-228175Y268950D01*
G01X-229570Y273325D02*
X-234530D01*
G01X-219650Y281450D02*
Y268950D01*
G01X-223215Y281450D02*
X-216085D01*
G01X-204150Y268950D02*
X-210350D01*
Y281450D01*
X-204150D01*
G01X-206630Y275408D02*
X-210350D01*
G01X-198260Y268950D02*
Y281450D01*
X-195160D01*
X-193920Y280825D01*
X-192990Y279992D01*
X-192215Y278742D01*
X-191595Y277283D01*
X-191440Y275200D01*
X-191595Y273116D01*
X-192215Y271658D01*
X-192990Y270408D01*
X-193920Y269575D01*
X-195160Y268950D01*
X-198260D01*
G01X-162300Y287700D02*
Y237700D01*
G01X-135950Y268950D02*
X-137190Y269158D01*
X-138275Y269991D01*
X-139205Y271242D01*
X-139825Y272700D01*
X-140135Y274367D01*
Y276033D01*
X-139825Y277700D01*
X-139205Y279158D01*
X-138275Y280408D01*
X-137190Y281242D01*
X-135950Y281450D01*
X-134710Y281242D01*
X-133625Y280408D01*
X-132695Y279158D01*
X-132075Y277700D01*
X-131765Y276033D01*
Y274367D01*
X-132075Y272700D01*
X-132695Y271242D01*
X-133625Y269991D01*
X-134710Y269158D01*
X-135950Y268950D01*
G01X-134710Y272283D02*
X-132850Y268950D01*
G01X-123550Y281450D02*
Y268950D01*
G01X-127115Y281450D02*
X-119985D01*
G01X-111150Y268950D02*
Y274575D01*
X-114250Y281450D01*
G01X-108050D02*
X-111150Y274575D01*
G01X-132695Y254367D02*
X-131765Y255616D01*
X-130680Y256242D01*
X-129440Y256450D01*
X-127890Y256033D01*
X-126805Y254992D01*
X-126495Y253742D01*
X-126650Y252491D01*
X-127270Y251450D01*
X-130370Y249367D01*
X-131765Y247908D01*
X-132695Y245825D01*
X-133005Y243950D01*
X-126495D01*
G01X-117350Y256450D02*
X-118590Y256033D01*
X-119520Y254992D01*
X-120140Y253742D01*
X-120605Y252075D01*
X-120760Y250200D01*
X-120605Y248325D01*
X-120140Y246658D01*
X-119520Y245408D01*
X-118590Y244367D01*
X-117350Y243950D01*
X-116110Y244367D01*
X-115180Y245408D01*
X-114560Y246658D01*
X-114095Y248325D01*
X-113940Y250200D01*
X-114095Y252075D01*
X-114560Y253742D01*
X-115180Y254992D01*
X-116110Y256033D01*
X-117350Y256450D01*
G01X0Y170000D02*
Y192700D01*
G01X40675Y182700D02*
X0D01*
G01X15000Y185200D02*
X0Y182700D01*
X15000Y180200D01*
Y185200D01*
G01X56560Y176450D02*
Y188950D01*
X50825Y179992D01*
X58575D01*
G01X67100Y188950D02*
X65860Y188533D01*
X64930Y187492D01*
X64310Y186242D01*
X63845Y184575D01*
X63690Y182700D01*
X63845Y180825D01*
X64310Y179158D01*
X64930Y177908D01*
X65860Y176867D01*
X67100Y176450D01*
X68340Y176867D01*
X69270Y177908D01*
X69890Y179158D01*
X70355Y180825D01*
X70510Y182700D01*
X70355Y184575D01*
X69890Y186242D01*
X69270Y187492D01*
X68340Y188533D01*
X67100Y188950D01*
G01X79500Y176033D02*
X79190Y176242D01*
Y176658D01*
X79500Y176867D01*
X79810Y176658D01*
Y176242D01*
X79500Y176033D01*
G01X91900Y188950D02*
X90660Y188533D01*
X89730Y187492D01*
X89110Y186242D01*
X88645Y184575D01*
X88490Y182700D01*
X88645Y180825D01*
X89110Y179158D01*
X89730Y177908D01*
X90660Y176867D01*
X91900Y176450D01*
X93140Y176867D01*
X94070Y177908D01*
X94690Y179158D01*
X95155Y180825D01*
X95310Y182700D01*
X95155Y184575D01*
X94690Y186242D01*
X94070Y187492D01*
X93140Y188533D01*
X91900Y188950D01*
G01X104300D02*
X103060Y188533D01*
X102130Y187492D01*
X101510Y186242D01*
X101045Y184575D01*
X100890Y182700D01*
X101045Y180825D01*
X101510Y179158D01*
X102130Y177908D01*
X103060Y176867D01*
X104300Y176450D01*
X105540Y176867D01*
X106470Y177908D01*
X107090Y179158D01*
X107555Y180825D01*
X107710Y182700D01*
X107555Y184575D01*
X107090Y186242D01*
X106470Y187492D01*
X105540Y188533D01*
X104300Y188950D01*
G01X118325Y182700D02*
X160000D01*
G01X145000Y180200D02*
X160000Y182700D01*
X145000Y185200D01*
Y180200D01*
G01X170000Y0D02*
X220500D01*
G01X187560Y75750D02*
Y88250D01*
X181825Y79292D01*
X189575D01*
G01X198100Y88250D02*
X196860Y87833D01*
X195930Y86792D01*
X195310Y85542D01*
X194845Y83875D01*
X194690Y82000D01*
X194845Y80125D01*
X195310Y78458D01*
X195930Y77208D01*
X196860Y76167D01*
X198100Y75750D01*
X199340Y76167D01*
X200270Y77208D01*
X200890Y78458D01*
X201355Y80125D01*
X201510Y82000D01*
X201355Y83875D01*
X200890Y85542D01*
X200270Y86792D01*
X199340Y87833D01*
X198100Y88250D01*
G01X210500Y75333D02*
X210190Y75542D01*
Y75958D01*
X210500Y76167D01*
X210810Y75958D01*
Y75542D01*
X210500Y75333D01*
G01X222900Y88250D02*
X221660Y87833D01*
X220730Y86792D01*
X220110Y85542D01*
X219645Y83875D01*
X219490Y82000D01*
X219645Y80125D01*
X220110Y78458D01*
X220730Y77208D01*
X221660Y76167D01*
X222900Y75750D01*
X224140Y76167D01*
X225070Y77208D01*
X225690Y78458D01*
X226155Y80125D01*
X226310Y82000D01*
X226155Y83875D01*
X225690Y85542D01*
X225070Y86792D01*
X224140Y87833D01*
X222900Y88250D01*
G01X235300D02*
X234060Y87833D01*
X233130Y86792D01*
X232510Y85542D01*
X232045Y83875D01*
X231890Y82000D01*
X232045Y80125D01*
X232510Y78458D01*
X233130Y77208D01*
X234060Y76167D01*
X235300Y75750D01*
X236540Y76167D01*
X237470Y77208D01*
X238090Y78458D01*
X238555Y80125D01*
X238710Y82000D01*
X238555Y83875D01*
X238090Y85542D01*
X237470Y86792D01*
X236540Y87833D01*
X235300Y88250D01*
G01X160000Y170000D02*
Y192700D01*
G01X170000Y160000D02*
X220500D01*
G01X210500Y66375D02*
Y0D01*
G01X208000Y15000D02*
X210500Y0D01*
X213000Y15000D01*
X208000D01*
G01X210500Y97625D02*
Y160000D01*
G01X213000Y145000D02*
X210500Y160000D01*
X208000Y145000D01*
X213000D01*
M02*
