G04 ================== begin FILE IDENTIFICATION RECORD ==================*
G04 Layout Name:  C:/CADENCE/allegro/SCHEMA_PT_PCB_FINAL.brd*
G04 Film Name:    SPTOP*
G04 File Format:  Gerber RS274X*
G04 File Origin:  Cadence Allegro 17.2-S025*
G04 Origin Date:  Sat Dec 28 18:18:20 2024*
G04 *
G04 Layer:  PIN/PASTEMASK_TOP*
G04 Layer:  PACKAGE GEOMETRY/PASTEMASK_TOP*
G04 *
G04 Offset:    (0.000 0.000)*
G04 Mirror:    No*
G04 Mode:      Positive*
G04 Rotation:  0*
G04 FullContactRelief:  No*
G04 UndefLineWidth:     10.000*
G04 ================== end FILE IDENTIFICATION RECORD ====================*
%FSLAX25Y25*MOIN*%
%IR0*IPPOS*OFA0.00000B0.00000*MIA0B0*SFA1.00000B1.00000*%
%ADD18R,.06087X.110079*%
%ADD10R,.110079X.06087*%
%ADD20R,.054961X.125831*%
%ADD15R,.125831X.054961*%
%ADD16R,.015X.012*%
%ADD14R,.03724X.03528*%
%ADD12C,.02937*%
%ADD17R,.045118X.045118*%
%ADD11R,.03528X.054961*%
%ADD19R,.045118X.072681*%
%ADD13R,.054961X.03528*%
%LPD*%
G75*
G54D10*
X13000Y30000D03*
Y50000D03*
Y40000D03*
Y66000D03*
X14000Y110000D03*
X16000Y99000D03*
X12000Y150000D03*
X13000Y140000D03*
Y130000D03*
X44000Y115000D03*
X118000Y9000D03*
X148000Y25000D03*
Y14000D03*
Y151000D03*
G54D11*
X8063Y85000D03*
X35063Y30000D03*
X15937Y85000D03*
X26063D03*
X33937D03*
X42937Y30000D03*
X63937D03*
X56063D03*
X63937Y40000D03*
X56063D03*
X65937Y51000D03*
X58063D03*
X70937Y72000D03*
X63063D03*
X47063Y85000D03*
X54937D03*
X66063Y150000D03*
Y136000D03*
X83937Y30000D03*
X76063D03*
X96063D03*
X86063Y85000D03*
X93937D03*
X88937Y104000D03*
X81063D03*
X99063D03*
X73937Y150000D03*
Y136000D03*
X103937Y30000D03*
X106937Y104000D03*
G54D20*
X134000Y101795D03*
Y126205D03*
G54D12*
X20000Y20000D03*
X140000Y140000D03*
G54D13*
X31000Y113937D03*
Y106063D03*
X27000Y149937D03*
Y142063D03*
X29000Y130937D03*
Y123063D03*
X101000Y151937D03*
Y144063D03*
G54D14*
X53543Y20000D03*
X46457D03*
X63543Y115000D03*
X56457D03*
X63543Y125000D03*
X56457D03*
X90543Y9000D03*
X83457D03*
X95543Y72000D03*
X88457D03*
X118543Y143000D03*
X111457D03*
X111543Y131000D03*
X104457D03*
G54D15*
X107205Y52000D03*
X82795D03*
G54D16*
X75500Y117200D03*
X82500Y121000D03*
X75500Y124700D03*
X87500Y133200D03*
Y140700D03*
X94500Y137000D03*
G54D17*
X124000Y77055D03*
Y68000D03*
G54D18*
X151000Y45000D03*
G54D19*
X146244Y72528D03*
M02*
