G04 ================== begin FILE IDENTIFICATION RECORD ==================*
G04 Layout Name:  C:/CADENCE/allegro/SCHEMA_PT_PCB_FINAL.brd*
G04 Film Name:    SSTOP*
G04 File Format:  Gerber RS274X*
G04 File Origin:  Cadence Allegro 17.2-S025*
G04 Origin Date:  Tue Jan 21 23:08:40 2025*
G04 *
G04 Layer:  REF DES/SILKSCREEN_TOP*
G04 Layer:  PACKAGE GEOMETRY/SILKSCREEN_TOP*
G04 Layer:  BOARD GEOMETRY/SILKSCREEN_TOP*
G04 *
G04 Offset:    (0.000 0.000)*
G04 Mirror:    No*
G04 Mode:      Positive*
G04 Rotation:  0*
G04 FullContactRelief:  No*
G04 UndefLineWidth:     10.000*
G04 ================== end FILE IDENTIFICATION RECORD ====================*
%FSLAX25Y25*MOIN*%
%IR0*IPPOS*OFA0.00000B0.00000*MIA0B0*SFA1.00000B1.00000*%
%ADD10C,.00787*%
%ADD11C,.01*%
G75*
%LPD*%
G75*
G54D10*
G01X6300Y25900D02*
Y34300D01*
G01X19600Y25900D02*
X6300D01*
G01Y45900D02*
Y54300D01*
G01X19600Y45900D02*
X6300D01*
G01Y54300D02*
X19600D01*
G01X6300Y35900D02*
Y44300D01*
G01X19600Y35900D02*
X6300D01*
G01Y44300D02*
X19600D01*
G01X6300Y34300D02*
X19600D01*
G01X6300Y61800D02*
Y70200D01*
G01X19600Y61800D02*
X6300D01*
G01Y70200D02*
X19600D01*
G01X5200Y81200D02*
Y88900D01*
G01X18800Y81200D02*
X5200D01*
G01Y88900D02*
X18800D01*
G01X7400Y105800D02*
Y114200D01*
G01X20700Y105800D02*
X7400D01*
G01Y114200D02*
X20700D01*
G01X9300Y94800D02*
Y103200D01*
G01X22600Y94800D02*
X9300D01*
G01Y103200D02*
X22600D01*
G01X5300Y154200D02*
X18600D01*
Y145800D01*
X5300D01*
Y154200D01*
G01X6300Y135800D02*
Y144200D01*
G01X19600Y135800D02*
X6300D01*
G01Y144200D02*
X19600D01*
G01X6300Y125800D02*
Y134200D01*
G01X19600Y125800D02*
X6300D01*
G01Y134200D02*
X19600D01*
G01Y34300D02*
Y25900D01*
G01X32200Y26200D02*
Y33900D01*
G01X45800Y26200D02*
X32200D01*
G01X39000Y27835D02*
Y32165D01*
G01Y27835D02*
Y32165D01*
G01X19600Y54300D02*
Y45900D01*
G01Y44300D02*
Y35900D01*
G01X32200Y33900D02*
X45800D01*
G01X19600Y70200D02*
Y61800D01*
G01X12000Y82835D02*
Y87165D01*
G01X18800Y88900D02*
Y81200D01*
G01X23200D02*
Y88900D01*
G01X36800Y81200D02*
X23200D01*
G01X30000Y82835D02*
Y87165D01*
G01X23200Y88900D02*
X36800D01*
G01D02*
Y81200D01*
G01X12000Y82835D02*
Y87165D01*
G01X30000D02*
Y82835D01*
G01X37400Y110900D02*
Y119300D01*
G01X50700Y110900D02*
X37400D01*
G01Y119300D02*
X50700D01*
G01X20700Y114200D02*
Y105800D01*
G01X22600Y103200D02*
Y94800D01*
G01X24900Y120000D02*
Y133900D01*
G01X33100Y120000D02*
X24900D01*
G01X33100Y134000D02*
Y120000D01*
G01X26900Y103000D02*
Y116900D01*
G01X35100Y103000D02*
X26900D01*
G01X35100Y117000D02*
Y103000D01*
G01X33165Y110000D02*
X28835D01*
G01X26900Y116900D02*
X27000Y117000D01*
G01D02*
X35100D01*
G01X33165Y110000D02*
X28835D01*
G01X19600Y144200D02*
Y135800D01*
G01Y134200D02*
Y125800D01*
G01X23000Y153000D02*
X31100D01*
Y139000D01*
X22900D01*
Y152900D01*
X23000Y153000D01*
G01X31165Y127000D02*
X26835D01*
G01X24900Y133900D02*
X25000Y134000D01*
G01D02*
X33100D01*
G01X29165Y146000D02*
X24835D01*
G01X31165Y127000D02*
X26835D01*
G01X53200Y26200D02*
Y33900D01*
G01X66800Y26200D02*
X53200D01*
G01X60000Y27835D02*
Y32165D01*
G01X66800Y33900D02*
Y26200D01*
G01X45800Y33900D02*
Y26200D01*
G01X43400Y17000D02*
Y22900D01*
G01X56700Y17000D02*
X43400D01*
G01X56700Y22900D02*
Y17000D01*
G01X43400Y22900D02*
X56700D01*
G01X60000Y27835D02*
Y32165D01*
G01X53200Y36200D02*
Y43900D01*
G01X66800Y36200D02*
X53200D01*
G01X60000Y37835D02*
Y42165D01*
G01X53200Y43900D02*
X66800D01*
G01D02*
Y36200D01*
G01X55200Y47200D02*
Y54900D01*
G01X68800Y47200D02*
X55200D01*
G01X62000Y48835D02*
Y53165D01*
G01X55200Y54900D02*
X68800D01*
G01D02*
Y47200D01*
G01X53200Y33900D02*
X66800D01*
G01X60000Y37835D02*
Y42165D01*
G01X62000Y48835D02*
Y53165D01*
G01X44200Y81200D02*
Y88900D01*
G01X57800Y81200D02*
X44200D01*
G01X51000Y82835D02*
Y87165D01*
G01X44200Y88900D02*
X57800D01*
G01D02*
Y81200D01*
G01X60200Y68200D02*
Y75900D01*
G01X73800Y68200D02*
X60200D01*
G01X67000Y69835D02*
Y74165D01*
G01X60200Y75900D02*
X73800D01*
G01X67000Y69835D02*
Y74165D01*
G01X51000Y87165D02*
Y82835D01*
G01X50700Y119300D02*
Y110900D01*
G01X53300Y118000D02*
X66600D01*
Y112100D01*
X53300D01*
Y118000D01*
G01X63200Y153900D02*
X76800D01*
Y146200D01*
X63200D01*
Y153900D01*
G01Y132200D02*
Y139900D01*
G01X76800Y132200D02*
X63200D01*
G01X70000Y133835D02*
Y138165D01*
G01X63200Y139900D02*
X76800D01*
G01X53400Y122100D02*
Y128000D01*
G01X66700Y122100D02*
X53400D01*
G01X66700Y128000D02*
Y122100D01*
G01X53400Y128000D02*
X66700D01*
G01X70000Y147835D02*
Y152165D01*
G01Y138165D02*
Y133835D01*
G01X73200Y26200D02*
Y33900D01*
G01X86800Y26200D02*
X73200D01*
G01X80000Y27835D02*
Y32165D01*
G01X86800Y33900D02*
Y26200D01*
G01X93200D02*
Y33900D01*
G01X106800Y26200D02*
X93200D01*
G01X100000Y27835D02*
Y32165D01*
G01X80300Y6100D02*
Y12000D01*
G01X93600Y6100D02*
X80300D01*
G01X93600Y12000D02*
Y6100D01*
G01X80300Y12000D02*
X93600D01*
G01X80000Y27835D02*
Y32165D01*
G01X100000Y27835D02*
Y32165D01*
G01X73200Y33900D02*
X86800D01*
G01X93200D02*
X106800D01*
G01X77579Y57315D02*
G03I-492J0D01*
G01X107992Y47276D02*
Y39008D01*
X88504D01*
X82008Y45504D01*
Y47276D01*
G01X107992Y56724D02*
Y64992D01*
X88504D01*
X82008Y58496D01*
Y56724D01*
G01X83200Y81200D02*
Y88900D01*
G01X96800Y81200D02*
X83200D01*
G01X90000Y82835D02*
Y87165D01*
G01X83200Y88900D02*
X96800D01*
G01D02*
Y81200D01*
G01X73800Y75900D02*
Y68200D01*
G01X85400Y69100D02*
Y75000D01*
G01X98700Y69100D02*
X85400D01*
G01X98700Y75000D02*
Y69100D01*
G01X85400Y75000D02*
X98700D01*
G01X90000Y87165D02*
Y82835D01*
G01X96200Y100200D02*
Y107900D01*
G01X109800Y100200D02*
X96200D01*
G01Y107900D02*
X109800D01*
G01X78200Y100200D02*
Y107900D01*
G01X91800Y100200D02*
X78200D01*
G01X85000Y101835D02*
Y106165D01*
G01X78200Y107900D02*
X91800D01*
G01D02*
Y100200D01*
G01X75700Y119000D02*
Y122700D01*
G01Y114300D02*
Y115300D01*
G01X75800Y114200D02*
X75700Y114300D01*
G01X82300Y114200D02*
X75800D01*
G01X82300Y119000D02*
Y114200D01*
G01X85000Y101835D02*
Y106165D01*
G01X76800Y139900D02*
Y132200D01*
G01X96900Y141000D02*
Y154900D01*
G01X105100Y141000D02*
X96900D01*
G01X103165Y148000D02*
X98835D01*
G01X94200Y135100D02*
Y130300D01*
X87700D01*
X87600Y130400D01*
Y131400D01*
G01Y135100D02*
Y138800D01*
G01X87700Y142400D02*
Y143700D01*
X94200D01*
Y138900D01*
G01X75800Y126300D02*
Y127600D01*
G01X82300D02*
Y122800D01*
G01X75800Y127600D02*
X82300D01*
G01X103165Y148000D02*
X98835D01*
G01X96900Y154900D02*
X97000Y155000D01*
G01D02*
X105100D01*
G01X111300Y4800D02*
Y13200D01*
G01X124600Y4800D02*
X111300D01*
G01Y13200D02*
X124600D01*
G01D02*
Y4800D01*
G01X106800Y33900D02*
Y26200D01*
G01X135122Y66622D02*
G03X141028Y72528I0J5906D01*
G03X134925Y78433I-5909J-1D01*
G03X129217Y72528I194J-5899D01*
G03X135122Y66622I5905J-1D01*
G01X125280Y71543D02*
Y73512D01*
G01X144965Y78039D02*
Y82370D01*
X125280D01*
Y81189D01*
G01X144965Y67016D02*
Y62685D01*
X125280D01*
Y63866D01*
G01X103000Y101835D02*
Y106165D01*
G01X109800Y107900D02*
Y100200D01*
G01X129276Y101008D02*
X121008D01*
Y120496D01*
X127504Y126992D01*
X129276D01*
G01X103000Y101835D02*
Y106165D01*
G01X105100Y155000D02*
Y141000D01*
G01X108400Y140000D02*
Y145900D01*
G01X121700Y140000D02*
X108400D01*
G01X121700Y145900D02*
Y140000D01*
G01X108400Y145900D02*
X121700D01*
G01X101400Y128000D02*
Y133900D01*
G01X114700Y128000D02*
X101400D01*
G01X114700Y133900D02*
Y128000D01*
G01X101400Y133900D02*
X114700D01*
G01X141300Y20800D02*
Y29200D01*
G01X154600Y20800D02*
X141300D01*
G01Y29200D02*
X154600D01*
G01D02*
Y20800D01*
G01X141300Y9900D02*
Y18300D01*
G01X154600Y9900D02*
X141300D01*
G01Y18300D02*
X154600D01*
G01D02*
Y9900D01*
G01X146600Y51900D02*
X155300D01*
Y38300D01*
X146900D01*
X146600Y38600D01*
Y51900D01*
G01X135122Y68000D02*
Y76858D01*
G01X139650Y72528D02*
X130594D01*
G01X138724Y101008D02*
X146992D01*
Y120496D01*
X140496Y126992D01*
X138724D01*
G01X141300Y146800D02*
Y155200D01*
G01X154600Y146800D02*
X141300D01*
G01X154600Y155200D02*
Y146800D01*
G01X139807Y131913D02*
G03I-492J0D01*
G01X141300Y155200D02*
X154600D01*
G54D11*
G01X4033Y120920D02*
X4225Y120610D01*
X4455Y120403D01*
X4723Y120300D01*
X5030Y120403D01*
X5260Y120610D01*
X5490Y120920D01*
X5567Y121333D01*
Y123400D01*
G01X7057Y120920D02*
X7287Y120558D01*
X7593Y120352D01*
X7938Y120300D01*
X8245Y120352D01*
X8552Y120610D01*
X8743Y120920D01*
X8782Y121230D01*
X8705Y121592D01*
X8437Y121850D01*
X8168Y121953D01*
X7823D01*
G01X8168D02*
X8398Y122108D01*
X8590Y122367D01*
X8667Y122677D01*
X8590Y122987D01*
X8398Y123245D01*
X8053Y123400D01*
X7708Y123348D01*
X7363Y123142D01*
G01X11000Y120300D02*
Y123400D01*
X10540Y122780D01*
G01Y120300D02*
X11460D01*
G01X10687Y12900D02*
Y15400D01*
X11913Y12900D01*
Y15400D01*
G01X13047Y14567D02*
Y13400D01*
X13153Y13108D01*
X13313Y12942D01*
X13500Y12900D01*
X13687Y12942D01*
X13847Y13108D01*
X13953Y13400D01*
G01Y12900D02*
Y14567D01*
G01X15700D02*
Y12900D01*
G01Y15233D02*
X15647Y15275D01*
Y15358D01*
X15700Y15400D01*
X15753Y15358D01*
Y15275D01*
X15700Y15233D01*
G01X18327Y14358D02*
X18140Y14525D01*
X17980Y14567D01*
X17767Y14483D01*
X17607Y14317D01*
X17500Y14025D01*
X17473Y13733D01*
X17500Y13442D01*
X17607Y13192D01*
X17767Y12983D01*
X17980Y12900D01*
X18167Y12983D01*
X18327Y13150D01*
G01X20580Y12900D02*
Y14567D01*
G01Y14275D02*
X20473Y14442D01*
X20313Y14525D01*
X20127Y14567D01*
X19940Y14483D01*
X19780Y14317D01*
X19673Y14067D01*
X19620Y13733D01*
X19673Y13400D01*
X19780Y13150D01*
X19940Y12983D01*
X20127Y12900D01*
X20313Y12942D01*
X20473Y13067D01*
X20580Y13233D01*
G01X23807Y12900D02*
Y15400D01*
X24500Y13317D01*
X25193Y15400D01*
Y12900D01*
G01X26700Y14567D02*
Y12900D01*
G01Y15233D02*
X26647Y15275D01*
Y15358D01*
X26700Y15400D01*
X26753Y15358D01*
Y15275D01*
X26700Y15233D01*
G01X28447Y12900D02*
Y15400D01*
G01Y14192D02*
X28580Y14400D01*
X28713Y14525D01*
X28927Y14567D01*
X29087Y14525D01*
X29273Y14358D01*
X29353Y14108D01*
Y12900D01*
G01X31580D02*
Y14567D01*
G01Y14275D02*
X31473Y14442D01*
X31313Y14525D01*
X31127Y14567D01*
X30940Y14483D01*
X30780Y14317D01*
X30673Y14067D01*
X30620Y13733D01*
X30673Y13400D01*
X30780Y13150D01*
X30940Y12983D01*
X31127Y12900D01*
X31313Y12942D01*
X31473Y13067D01*
X31580Y13233D01*
G01X33300Y14567D02*
Y12900D01*
G01Y15233D02*
X33247Y15275D01*
Y15358D01*
X33300Y15400D01*
X33353Y15358D01*
Y15275D01*
X33300Y15233D01*
G01X38287Y15192D02*
X38127Y15317D01*
X37940Y15400D01*
X37727D01*
X37487Y15275D01*
X37300Y15067D01*
X37167Y14817D01*
X37060Y14400D01*
X37033Y14025D01*
X37087Y13650D01*
X37167Y13400D01*
X37327Y13150D01*
X37513Y12983D01*
X37700Y12900D01*
X37887D01*
X38073Y12983D01*
X38233Y13108D01*
X38367Y13275D01*
G01X40380Y12900D02*
Y14567D01*
G01Y14275D02*
X40273Y14442D01*
X40113Y14525D01*
X39927Y14567D01*
X39740Y14483D01*
X39580Y14317D01*
X39473Y14067D01*
X39420Y13733D01*
X39473Y13400D01*
X39580Y13150D01*
X39740Y12983D01*
X39927Y12900D01*
X40113Y12942D01*
X40273Y13067D01*
X40380Y13233D01*
G01X42100Y12900D02*
Y15400D01*
G01X44300Y14567D02*
Y12900D01*
G01Y15233D02*
X44247Y15275D01*
Y15358D01*
X44300Y15400D01*
X44353Y15358D01*
Y15275D01*
X44300Y15233D01*
G01X46047Y12900D02*
Y14567D01*
G01Y14150D02*
X46153Y14358D01*
X46313Y14525D01*
X46527Y14567D01*
X46713Y14525D01*
X46873Y14358D01*
X46953Y14067D01*
Y12900D01*
G01X51220D02*
Y15400D01*
X50233Y13608D01*
X51567D01*
G01X52513Y13400D02*
X52673Y13108D01*
X52887Y12942D01*
X53127Y12900D01*
X53340Y12942D01*
X53553Y13150D01*
X53687Y13400D01*
X53713Y13650D01*
X53660Y13942D01*
X53473Y14150D01*
X53287Y14233D01*
X53047D01*
G01X53287D02*
X53447Y14358D01*
X53580Y14567D01*
X53633Y14817D01*
X53580Y15067D01*
X53447Y15275D01*
X53207Y15400D01*
X52967Y15358D01*
X52727Y15192D01*
G01X54713Y13400D02*
X54873Y13108D01*
X55087Y12942D01*
X55327Y12900D01*
X55540Y12942D01*
X55753Y13150D01*
X55887Y13400D01*
X55913Y13650D01*
X55860Y13942D01*
X55673Y14150D01*
X55487Y14233D01*
X55247D01*
G01X55487D02*
X55647Y14358D01*
X55780Y14567D01*
X55833Y14817D01*
X55780Y15067D01*
X55647Y15275D01*
X55407Y15400D01*
X55167Y15358D01*
X54927Y15192D01*
G01X56833Y12900D02*
X57500Y15400D01*
X58167Y12900D01*
G01X57927Y13775D02*
X57073D01*
G01X10767Y9800D02*
Y12300D01*
X11407D01*
X11620Y12175D01*
X11780Y11883D01*
X11833Y11550D01*
X11780Y11217D01*
X11647Y10967D01*
X11407Y10842D01*
X10767D01*
G01X13500Y9800D02*
Y12300D01*
X13180Y11800D01*
G01Y9800D02*
X13820D01*
G01X15113D02*
Y12300D01*
X15647D01*
X15860Y12175D01*
X16020Y12008D01*
X16153Y11758D01*
X16260Y11467D01*
X16287Y11050D01*
X16260Y10633D01*
X16153Y10342D01*
X16020Y10092D01*
X15860Y9925D01*
X15647Y9800D01*
X15113D01*
G01X18487Y12092D02*
X18327Y12217D01*
X18140Y12300D01*
X17927D01*
X17687Y12175D01*
X17500Y11967D01*
X17367Y11717D01*
X17260Y11300D01*
X17233Y10925D01*
X17287Y10550D01*
X17367Y10300D01*
X17527Y10050D01*
X17713Y9883D01*
X17900Y9800D01*
X18087D01*
X18273Y9883D01*
X18433Y10008D01*
X18567Y10175D01*
G01X20633Y9800D02*
X19567D01*
Y12300D01*
X20633D01*
G01X20207Y11092D02*
X19567D01*
G01X23993Y11883D02*
X24153Y12133D01*
X24340Y12258D01*
X24553Y12300D01*
X24820Y12217D01*
X25007Y12008D01*
X25060Y11758D01*
X25033Y11508D01*
X24927Y11300D01*
X24393Y10883D01*
X24153Y10592D01*
X23993Y10175D01*
X23940Y9800D01*
X25060D01*
G01X26700Y12300D02*
X26487Y12217D01*
X26327Y12008D01*
X26220Y11758D01*
X26140Y11425D01*
X26113Y11050D01*
X26140Y10675D01*
X26220Y10342D01*
X26327Y10092D01*
X26487Y9883D01*
X26700Y9800D01*
X26913Y9883D01*
X27073Y10092D01*
X27180Y10342D01*
X27260Y10675D01*
X27287Y11050D01*
X27260Y11425D01*
X27180Y11758D01*
X27073Y12008D01*
X26913Y12217D01*
X26700Y12300D01*
G01X28393Y11883D02*
X28553Y12133D01*
X28740Y12258D01*
X28953Y12300D01*
X29220Y12217D01*
X29407Y12008D01*
X29460Y11758D01*
X29433Y11508D01*
X29327Y11300D01*
X28793Y10883D01*
X28553Y10592D01*
X28393Y10175D01*
X28340Y9800D01*
X29460D01*
G01X31420D02*
Y12300D01*
X30433Y10508D01*
X31767D01*
G01X32953Y10633D02*
X33647D01*
G01X34993Y11883D02*
X35153Y12133D01*
X35340Y12258D01*
X35553Y12300D01*
X35820Y12217D01*
X36007Y12008D01*
X36060Y11758D01*
X36033Y11508D01*
X35927Y11300D01*
X35393Y10883D01*
X35153Y10592D01*
X34993Y10175D01*
X34940Y9800D01*
X36060D01*
G01X37700Y12300D02*
X37487Y12217D01*
X37327Y12008D01*
X37220Y11758D01*
X37140Y11425D01*
X37113Y11050D01*
X37140Y10675D01*
X37220Y10342D01*
X37327Y10092D01*
X37487Y9883D01*
X37700Y9800D01*
X37913Y9883D01*
X38073Y10092D01*
X38180Y10342D01*
X38260Y10675D01*
X38287Y11050D01*
X38260Y11425D01*
X38180Y11758D01*
X38073Y12008D01*
X37913Y12217D01*
X37700Y12300D01*
G01X39393Y11883D02*
X39553Y12133D01*
X39740Y12258D01*
X39953Y12300D01*
X40220Y12217D01*
X40407Y12008D01*
X40460Y11758D01*
X40433Y11508D01*
X40327Y11300D01*
X39793Y10883D01*
X39553Y10592D01*
X39393Y10175D01*
X39340Y9800D01*
X40460D01*
G01X41513Y10175D02*
X41673Y9967D01*
X41860Y9842D01*
X42100Y9800D01*
X42340Y9883D01*
X42527Y10050D01*
X42660Y10342D01*
X42687Y10675D01*
X42633Y11008D01*
X42500Y11217D01*
X42313Y11383D01*
X42127Y11425D01*
X41940Y11383D01*
X41700Y11217D01*
X41780Y12300D01*
X42500D01*
G01X20933Y54420D02*
X21125Y54110D01*
X21355Y53903D01*
X21623Y53800D01*
X21930Y53903D01*
X22160Y54110D01*
X22390Y54420D01*
X22467Y54833D01*
Y56900D01*
G01X24800Y53800D02*
Y56900D01*
X24340Y56280D01*
G01Y53800D02*
X25260D01*
G01X27057Y54420D02*
X27287Y54058D01*
X27593Y53852D01*
X27938Y53800D01*
X28245Y53852D01*
X28552Y54110D01*
X28743Y54420D01*
X28782Y54730D01*
X28705Y55092D01*
X28437Y55350D01*
X28168Y55453D01*
X27823D01*
G01X28168D02*
X28398Y55608D01*
X28590Y55867D01*
X28667Y56177D01*
X28590Y56487D01*
X28398Y56745D01*
X28053Y56900D01*
X27708Y56848D01*
X27363Y56642D01*
G01X21033Y43420D02*
X21225Y43110D01*
X21455Y42903D01*
X21723Y42800D01*
X22030Y42903D01*
X22260Y43110D01*
X22490Y43420D01*
X22567Y43833D01*
Y45900D01*
G01X24172Y45383D02*
X24402Y45693D01*
X24670Y45848D01*
X24977Y45900D01*
X25360Y45797D01*
X25628Y45538D01*
X25705Y45228D01*
X25667Y44918D01*
X25513Y44660D01*
X24747Y44143D01*
X24402Y43782D01*
X24172Y43265D01*
X24095Y42800D01*
X25705D01*
G01X27157Y43420D02*
X27387Y43058D01*
X27693Y42852D01*
X28038Y42800D01*
X28345Y42852D01*
X28652Y43110D01*
X28843Y43420D01*
X28882Y43730D01*
X28805Y44092D01*
X28537Y44350D01*
X28268Y44453D01*
X27923D01*
G01X28268D02*
X28498Y44608D01*
X28690Y44867D01*
X28767Y45177D01*
X28690Y45487D01*
X28498Y45745D01*
X28153Y45900D01*
X27808Y45848D01*
X27463Y45642D01*
G01X20733Y33720D02*
X20925Y33410D01*
X21155Y33203D01*
X21423Y33100D01*
X21730Y33203D01*
X21960Y33410D01*
X22190Y33720D01*
X22267Y34133D01*
Y36200D01*
G01X23757Y33720D02*
X23987Y33358D01*
X24293Y33152D01*
X24638Y33100D01*
X24945Y33152D01*
X25252Y33410D01*
X25443Y33720D01*
X25482Y34030D01*
X25405Y34392D01*
X25137Y34650D01*
X24868Y34753D01*
X24523D01*
G01X24868D02*
X25098Y34908D01*
X25290Y35167D01*
X25367Y35477D01*
X25290Y35787D01*
X25098Y36045D01*
X24753Y36200D01*
X24408Y36148D01*
X24063Y35942D01*
G01X26857Y33720D02*
X27087Y33358D01*
X27393Y33152D01*
X27738Y33100D01*
X28045Y33152D01*
X28352Y33410D01*
X28543Y33720D01*
X28582Y34030D01*
X28505Y34392D01*
X28237Y34650D01*
X27968Y34753D01*
X27623D01*
G01X27968D02*
X28198Y34908D01*
X28390Y35167D01*
X28467Y35477D01*
X28390Y35787D01*
X28198Y36045D01*
X27853Y36200D01*
X27508Y36148D01*
X27163Y35942D01*
G01X29383Y34700D02*
Y37800D01*
X30342D01*
X30648Y37645D01*
X30840Y37438D01*
X30917Y37025D01*
X30840Y36612D01*
X30610Y36353D01*
X30342Y36198D01*
X29383D01*
G01X30342D02*
X30917Y34700D01*
G01X32598Y35062D02*
X32867Y34803D01*
X33173Y34700D01*
X33480Y34803D01*
X33748Y35113D01*
X33940Y35578D01*
X34017Y36043D01*
Y36612D01*
X33940Y37077D01*
X33748Y37490D01*
X33518Y37697D01*
X33250Y37800D01*
X32943Y37697D01*
X32713Y37490D01*
X32560Y37180D01*
X32483Y36767D01*
X32560Y36405D01*
X32752Y36043D01*
X32982Y35837D01*
X33250Y35785D01*
X33557Y35888D01*
X33787Y36147D01*
X34017Y36612D01*
G01X35200Y33667D02*
X37500D01*
G01X39450Y34700D02*
Y37800D01*
X38990Y37180D01*
G01Y34700D02*
X39910D01*
G01X10783Y71920D02*
X10975Y71610D01*
X11205Y71403D01*
X11473Y71300D01*
X11780Y71403D01*
X12010Y71610D01*
X12240Y71920D01*
X12317Y72333D01*
Y74400D01*
G01X13922Y73883D02*
X14152Y74193D01*
X14420Y74348D01*
X14727Y74400D01*
X15110Y74297D01*
X15378Y74038D01*
X15455Y73728D01*
X15417Y73418D01*
X15263Y73160D01*
X14497Y72643D01*
X14152Y72282D01*
X13922Y71765D01*
X13845Y71300D01*
X15455D01*
G01X11983Y77800D02*
Y80900D01*
X12942D01*
X13248Y80745D01*
X13440Y80538D01*
X13517Y80125D01*
X13440Y79712D01*
X13210Y79453D01*
X12942Y79298D01*
X11983D01*
G01X12942D02*
X13517Y77800D01*
G01X15850D02*
Y80900D01*
X15390Y80280D01*
G01Y77800D02*
X16310D01*
G01X17800Y76767D02*
X20100D01*
G01X22050Y77800D02*
Y80900D01*
X21590Y80280D01*
G01Y77800D02*
X22510D01*
G01X27983Y77100D02*
Y80200D01*
X28942D01*
X29248Y80045D01*
X29440Y79838D01*
X29517Y79425D01*
X29440Y79012D01*
X29210Y78753D01*
X28942Y78598D01*
X27983D01*
G01X28942D02*
X29517Y77100D01*
G01X31850D02*
Y80200D01*
X31390Y79580D01*
G01Y77100D02*
X32310D01*
G01X33800Y76067D02*
X36100D01*
G01X37322Y79683D02*
X37552Y79993D01*
X37820Y80148D01*
X38127Y80200D01*
X38510Y80097D01*
X38778Y79838D01*
X38855Y79528D01*
X38817Y79218D01*
X38663Y78960D01*
X37897Y78443D01*
X37552Y78082D01*
X37322Y77565D01*
X37245Y77100D01*
X38855D01*
G01X11383Y116020D02*
X11575Y115710D01*
X11805Y115503D01*
X12073Y115400D01*
X12380Y115503D01*
X12610Y115710D01*
X12840Y116020D01*
X12917Y116433D01*
Y118500D01*
G01X15710Y115400D02*
Y118500D01*
X14292Y116278D01*
X16208D01*
G01X24700Y98100D02*
Y95000D01*
G01X23818Y98100D02*
X25582D01*
G01X27033Y95000D02*
Y98100D01*
X27953D01*
X28260Y97945D01*
X28490Y97583D01*
X28567Y97170D01*
X28490Y96757D01*
X28298Y96447D01*
X27953Y96292D01*
X27033D01*
G01X30172Y97583D02*
X30402Y97893D01*
X30670Y98048D01*
X30977Y98100D01*
X31360Y97997D01*
X31628Y97738D01*
X31705Y97428D01*
X31667Y97118D01*
X31513Y96860D01*
X30747Y96343D01*
X30402Y95982D01*
X30172Y95465D01*
X30095Y95000D01*
X31705D01*
G01X25700Y111333D02*
X22600D01*
Y112292D01*
X22755Y112598D01*
X22962Y112790D01*
X23375Y112867D01*
X23788Y112790D01*
X24047Y112560D01*
X24202Y112292D01*
Y111333D01*
G01Y112292D02*
X25700Y112867D01*
G01Y115200D02*
X22600D01*
X23220Y114740D01*
G01X25700D02*
Y115660D01*
G01Y118223D02*
X25028Y118300D01*
X24460Y118415D01*
X23943Y118568D01*
X23375Y118760D01*
X22600Y119067D01*
Y117533D01*
G01X18633Y135820D02*
X18825Y135510D01*
X19055Y135303D01*
X19323Y135200D01*
X19630Y135303D01*
X19860Y135510D01*
X20090Y135820D01*
X20167Y136233D01*
Y138300D01*
G01X21772Y137783D02*
X22002Y138093D01*
X22270Y138248D01*
X22577Y138300D01*
X22960Y138197D01*
X23228Y137938D01*
X23305Y137628D01*
X23267Y137318D01*
X23113Y137060D01*
X22347Y136543D01*
X22002Y136182D01*
X21772Y135665D01*
X21695Y135200D01*
X23305D01*
G01X25600D02*
Y138300D01*
X25140Y137680D01*
G01Y135200D02*
X26060D01*
G01X34383Y145500D02*
Y148600D01*
X35342D01*
X35648Y148445D01*
X35840Y148238D01*
X35917Y147825D01*
X35840Y147412D01*
X35610Y147153D01*
X35342Y146998D01*
X34383D01*
G01X35342D02*
X35917Y145500D01*
G01X38250D02*
Y148600D01*
X37790Y147980D01*
G01Y145500D02*
X38710D01*
G01X40507Y145965D02*
X40737Y145707D01*
X41005Y145552D01*
X41350Y145500D01*
X41695Y145603D01*
X41963Y145810D01*
X42155Y146172D01*
X42193Y146585D01*
X42117Y146998D01*
X41925Y147257D01*
X41657Y147463D01*
X41388Y147515D01*
X41120Y147463D01*
X40775Y147257D01*
X40890Y148600D01*
X41925D01*
G01X23900Y125633D02*
X20800D01*
Y126592D01*
X20955Y126898D01*
X21162Y127090D01*
X21575Y127167D01*
X21988Y127090D01*
X22247Y126860D01*
X22402Y126592D01*
Y125633D01*
G01Y126592D02*
X23900Y127167D01*
G01Y129500D02*
X20800D01*
X21420Y129040D01*
G01X23900D02*
Y129960D01*
G01X22608Y131872D02*
X22247Y132140D01*
X22040Y132370D01*
X21937Y132677D01*
X22040Y132945D01*
X22247Y133137D01*
X22557Y133290D01*
X22918Y133328D01*
X23228Y133290D01*
X23538Y133137D01*
X23797Y132907D01*
X23900Y132638D01*
X23797Y132332D01*
X23487Y132063D01*
X23022Y131910D01*
X22505Y131872D01*
X21833Y131948D01*
X21472Y132063D01*
X21110Y132255D01*
X20852Y132523D01*
X20800Y132792D01*
X20903Y133060D01*
X21162Y133252D01*
G01X19067Y153900D02*
X19200Y153650D01*
X19360Y153483D01*
X19547Y153400D01*
X19760Y153483D01*
X19920Y153650D01*
X20080Y153900D01*
X20133Y154233D01*
Y155900D01*
G01X21800Y153400D02*
Y155900D01*
X21480Y155400D01*
G01Y153400D02*
X22120D01*
G01X24000D02*
Y155900D01*
X23680Y155400D01*
G01Y153400D02*
X24320D01*
G01X50693Y11542D02*
X50463Y11697D01*
X50195Y11800D01*
X49888D01*
X49543Y11645D01*
X49275Y11387D01*
X49083Y11077D01*
X48930Y10560D01*
X48892Y10095D01*
X48968Y9630D01*
X49083Y9320D01*
X49313Y9010D01*
X49582Y8803D01*
X49850Y8700D01*
X50118D01*
X50387Y8803D01*
X50617Y8958D01*
X50808Y9165D01*
G01X52107D02*
X52337Y8907D01*
X52605Y8752D01*
X52950Y8700D01*
X53295Y8803D01*
X53563Y9010D01*
X53755Y9372D01*
X53793Y9785D01*
X53717Y10198D01*
X53525Y10457D01*
X53257Y10663D01*
X52988Y10715D01*
X52720Y10663D01*
X52375Y10457D01*
X52490Y11800D01*
X53525D01*
G01X63593Y63542D02*
X63363Y63697D01*
X63095Y63800D01*
X62788D01*
X62443Y63645D01*
X62175Y63387D01*
X61983Y63077D01*
X61830Y62560D01*
X61792Y62095D01*
X61868Y61630D01*
X61983Y61320D01*
X62213Y61010D01*
X62482Y60803D01*
X62750Y60700D01*
X63018D01*
X63287Y60803D01*
X63517Y60958D01*
X63708Y61165D01*
G01X66310Y60700D02*
Y63800D01*
X64892Y61578D01*
X66808D01*
G01X67800Y59667D02*
X70100D01*
G01X72050Y60700D02*
Y63800D01*
X71590Y63180D01*
G01Y60700D02*
X72510D01*
G01X44733Y43700D02*
Y46800D01*
X45692D01*
X45998Y46645D01*
X46190Y46438D01*
X46267Y46025D01*
X46190Y45612D01*
X45960Y45353D01*
X45692Y45198D01*
X44733D01*
G01X45692D02*
X46267Y43700D01*
G01X48600D02*
Y46800D01*
X48140Y46180D01*
G01Y43700D02*
X49060D01*
G01X51700D02*
Y46800D01*
X51240Y46180D01*
G01Y43700D02*
X52160D01*
G01X67433Y43400D02*
Y46500D01*
X68392D01*
X68698Y46345D01*
X68890Y46138D01*
X68967Y45725D01*
X68890Y45312D01*
X68660Y45053D01*
X68392Y44898D01*
X67433D01*
G01X68392D02*
X68967Y43400D01*
G01X71300D02*
Y46500D01*
X70840Y45880D01*
G01Y43400D02*
X71760D01*
G01X73672Y45983D02*
X73902Y46293D01*
X74170Y46448D01*
X74477Y46500D01*
X74860Y46397D01*
X75128Y46138D01*
X75205Y45828D01*
X75167Y45518D01*
X75013Y45260D01*
X74247Y44743D01*
X73902Y44382D01*
X73672Y43865D01*
X73595Y43400D01*
X75205D01*
G01X42483Y34500D02*
Y37600D01*
X43442D01*
X43748Y37445D01*
X43940Y37238D01*
X44017Y36825D01*
X43940Y36412D01*
X43710Y36153D01*
X43442Y35998D01*
X42483D01*
G01X43442D02*
X44017Y34500D01*
G01X45698Y34862D02*
X45967Y34603D01*
X46273Y34500D01*
X46580Y34603D01*
X46848Y34913D01*
X47040Y35378D01*
X47117Y35843D01*
Y36412D01*
X47040Y36877D01*
X46848Y37290D01*
X46618Y37497D01*
X46350Y37600D01*
X46043Y37497D01*
X45813Y37290D01*
X45660Y36980D01*
X45583Y36567D01*
X45660Y36205D01*
X45852Y35843D01*
X46082Y35637D01*
X46350Y35585D01*
X46657Y35688D01*
X46887Y35947D01*
X47117Y36412D01*
G01X48300Y33467D02*
X50600D01*
G01X51822Y37083D02*
X52052Y37393D01*
X52320Y37548D01*
X52627Y37600D01*
X53010Y37497D01*
X53278Y37238D01*
X53355Y36928D01*
X53317Y36618D01*
X53163Y36360D01*
X52397Y35843D01*
X52052Y35482D01*
X51822Y34965D01*
X51745Y34500D01*
X53355D01*
G01X64683Y77500D02*
Y80600D01*
X65642D01*
X65948Y80445D01*
X66140Y80238D01*
X66217Y79825D01*
X66140Y79412D01*
X65910Y79153D01*
X65642Y78998D01*
X64683D01*
G01X65642D02*
X66217Y77500D01*
G01X67707Y78120D02*
X67937Y77758D01*
X68243Y77552D01*
X68588Y77500D01*
X68895Y77552D01*
X69202Y77810D01*
X69393Y78120D01*
X69432Y78430D01*
X69355Y78792D01*
X69087Y79050D01*
X68818Y79153D01*
X68473D01*
G01X68818D02*
X69048Y79308D01*
X69240Y79567D01*
X69317Y79877D01*
X69240Y80187D01*
X69048Y80445D01*
X68703Y80600D01*
X68358Y80548D01*
X68013Y80342D01*
G01X41583Y90700D02*
Y93800D01*
X42542D01*
X42848Y93645D01*
X43040Y93438D01*
X43117Y93025D01*
X43040Y92612D01*
X42810Y92353D01*
X42542Y92198D01*
X41583D01*
G01X42542D02*
X43117Y90700D01*
G01X45450D02*
Y93800D01*
X44990Y93180D01*
G01Y90700D02*
X45910D01*
G01X47400Y89667D02*
X49700D01*
G01X50807Y91320D02*
X51037Y90958D01*
X51343Y90752D01*
X51688Y90700D01*
X51995Y90752D01*
X52302Y91010D01*
X52493Y91320D01*
X52532Y91630D01*
X52455Y91992D01*
X52187Y92250D01*
X51918Y92353D01*
X51573D01*
G01X51918D02*
X52148Y92508D01*
X52340Y92767D01*
X52417Y93077D01*
X52340Y93387D01*
X52148Y93645D01*
X51803Y93800D01*
X51458Y93748D01*
X51113Y93542D01*
G01X55993Y109742D02*
X55763Y109897D01*
X55495Y110000D01*
X55188D01*
X54843Y109845D01*
X54575Y109587D01*
X54383Y109277D01*
X54230Y108760D01*
X54192Y108295D01*
X54268Y107830D01*
X54383Y107520D01*
X54613Y107210D01*
X54882Y107003D01*
X55150Y106900D01*
X55418D01*
X55687Y107003D01*
X55917Y107158D01*
X56108Y107365D01*
G01X58250Y106900D02*
Y110000D01*
X57790Y109380D01*
G01Y106900D02*
X58710D01*
G01X60200Y105867D02*
X62500D01*
G01X63722Y109483D02*
X63952Y109793D01*
X64220Y109948D01*
X64527Y110000D01*
X64910Y109897D01*
X65178Y109638D01*
X65255Y109328D01*
X65217Y109018D01*
X65063Y108760D01*
X64297Y108243D01*
X63952Y107882D01*
X63722Y107365D01*
X63645Y106900D01*
X65255D01*
G01X53193Y133042D02*
X52963Y133197D01*
X52695Y133300D01*
X52388D01*
X52043Y133145D01*
X51775Y132887D01*
X51583Y132577D01*
X51430Y132060D01*
X51392Y131595D01*
X51468Y131130D01*
X51583Y130820D01*
X51813Y130510D01*
X52082Y130303D01*
X52350Y130200D01*
X52618D01*
X52887Y130303D01*
X53117Y130458D01*
X53308Y130665D01*
G01X55450Y130200D02*
Y133300D01*
X54990Y132680D01*
G01Y130200D02*
X55910D01*
G01X57400Y129167D02*
X59700D01*
G01X61650Y130200D02*
Y133300D01*
X61190Y132680D01*
G01Y130200D02*
X62110D01*
G01X41983Y122420D02*
X42175Y122110D01*
X42405Y121903D01*
X42673Y121800D01*
X42980Y121903D01*
X43210Y122110D01*
X43440Y122420D01*
X43517Y122833D01*
Y124900D01*
G01X45850Y121800D02*
Y124900D01*
X45390Y124280D01*
G01Y121800D02*
X46310D01*
G01X54100Y143883D02*
X51000D01*
Y144842D01*
X51155Y145148D01*
X51362Y145340D01*
X51775Y145417D01*
X52188Y145340D01*
X52447Y145110D01*
X52602Y144842D01*
Y143883D01*
G01Y144842D02*
X54100Y145417D01*
G01X51517Y147022D02*
X51207Y147252D01*
X51052Y147520D01*
X51000Y147827D01*
X51103Y148210D01*
X51362Y148478D01*
X51672Y148555D01*
X51982Y148517D01*
X52240Y148363D01*
X52757Y147597D01*
X53118Y147252D01*
X53635Y147022D01*
X54100Y146945D01*
Y148555D01*
G01X55133Y149700D02*
Y152000D01*
G01X54100Y153950D02*
X51000D01*
X51620Y153490D01*
G01X54100D02*
Y154410D01*
G01X60500Y135683D02*
X57400D01*
Y136642D01*
X57555Y136948D01*
X57762Y137140D01*
X58175Y137217D01*
X58588Y137140D01*
X58847Y136910D01*
X59002Y136642D01*
Y135683D01*
G01Y136642D02*
X60500Y137217D01*
G01X57917Y138822D02*
X57607Y139052D01*
X57452Y139320D01*
X57400Y139627D01*
X57503Y140010D01*
X57762Y140278D01*
X58072Y140355D01*
X58382Y140317D01*
X58640Y140163D01*
X59157Y139397D01*
X59518Y139052D01*
X60035Y138822D01*
X60500Y138745D01*
Y140355D01*
G01X61533Y141500D02*
Y143800D01*
G01X57917Y145022D02*
X57607Y145252D01*
X57452Y145520D01*
X57400Y145827D01*
X57503Y146210D01*
X57762Y146478D01*
X58072Y146555D01*
X58382Y146517D01*
X58640Y146363D01*
X59157Y145597D01*
X59518Y145252D01*
X60035Y145022D01*
X60500Y144945D01*
Y146555D01*
G01X83993Y17042D02*
X83763Y17197D01*
X83495Y17300D01*
X83188D01*
X82843Y17145D01*
X82575Y16887D01*
X82383Y16577D01*
X82230Y16060D01*
X82192Y15595D01*
X82268Y15130D01*
X82383Y14820D01*
X82613Y14510D01*
X82882Y14303D01*
X83150Y14200D01*
X83418D01*
X83687Y14303D01*
X83917Y14458D01*
X84108Y14665D01*
G01X85522Y15492D02*
X85790Y15853D01*
X86020Y16060D01*
X86327Y16163D01*
X86595Y16060D01*
X86787Y15853D01*
X86940Y15543D01*
X86978Y15182D01*
X86940Y14872D01*
X86787Y14562D01*
X86557Y14303D01*
X86288Y14200D01*
X85982Y14303D01*
X85713Y14613D01*
X85560Y15078D01*
X85522Y15595D01*
X85598Y16267D01*
X85713Y16628D01*
X85905Y16990D01*
X86173Y17248D01*
X86442Y17300D01*
X86710Y17197D01*
X86902Y16938D01*
G01X73333Y34700D02*
Y37800D01*
X74292D01*
X74598Y37645D01*
X74790Y37438D01*
X74867Y37025D01*
X74790Y36612D01*
X74560Y36353D01*
X74292Y36198D01*
X73333D01*
G01X74292D02*
X74867Y34700D01*
G01X77200D02*
Y37800D01*
X76740Y37180D01*
G01Y34700D02*
X77660D01*
G01X80300Y37800D02*
X79993Y37697D01*
X79763Y37438D01*
X79610Y37128D01*
X79495Y36715D01*
X79457Y36250D01*
X79495Y35785D01*
X79610Y35372D01*
X79763Y35062D01*
X79993Y34803D01*
X80300Y34700D01*
X80607Y34803D01*
X80837Y35062D01*
X80990Y35372D01*
X81105Y35785D01*
X81143Y36250D01*
X81105Y36715D01*
X80990Y37128D01*
X80837Y37438D01*
X80607Y37697D01*
X80300Y37800D01*
G01X82250Y33667D02*
X84550D01*
G01X86500Y34700D02*
Y37800D01*
X86040Y37180D01*
G01Y34700D02*
X86960D01*
G01X92833Y34500D02*
Y37600D01*
X93792D01*
X94098Y37445D01*
X94290Y37238D01*
X94367Y36825D01*
X94290Y36412D01*
X94060Y36153D01*
X93792Y35998D01*
X92833D01*
G01X93792D02*
X94367Y34500D01*
G01X96700D02*
Y37600D01*
X96240Y36980D01*
G01Y34500D02*
X97160D01*
G01X99800Y37600D02*
X99493Y37497D01*
X99263Y37238D01*
X99110Y36928D01*
X98995Y36515D01*
X98957Y36050D01*
X98995Y35585D01*
X99110Y35172D01*
X99263Y34862D01*
X99493Y34603D01*
X99800Y34500D01*
X100107Y34603D01*
X100337Y34862D01*
X100490Y35172D01*
X100605Y35585D01*
X100643Y36050D01*
X100605Y36515D01*
X100490Y36928D01*
X100337Y37238D01*
X100107Y37497D01*
X99800Y37600D01*
G01X101750Y33467D02*
X104050D01*
G01X105272Y37083D02*
X105502Y37393D01*
X105770Y37548D01*
X106077Y37600D01*
X106460Y37497D01*
X106728Y37238D01*
X106805Y36928D01*
X106767Y36618D01*
X106613Y36360D01*
X105847Y35843D01*
X105502Y35482D01*
X105272Y34965D01*
X105195Y34500D01*
X106805D01*
G01X101193Y81142D02*
X100963Y81297D01*
X100695Y81400D01*
X100388D01*
X100043Y81245D01*
X99775Y80987D01*
X99583Y80677D01*
X99430Y80160D01*
X99392Y79695D01*
X99468Y79230D01*
X99583Y78920D01*
X99813Y78610D01*
X100082Y78403D01*
X100350Y78300D01*
X100618D01*
X100887Y78403D01*
X101117Y78558D01*
X101308Y78765D01*
G01X103910Y78300D02*
Y81400D01*
X102492Y79178D01*
X104408D01*
G01X105400Y77267D02*
X107700D01*
G01X108922Y80883D02*
X109152Y81193D01*
X109420Y81348D01*
X109727Y81400D01*
X110110Y81297D01*
X110378Y81038D01*
X110455Y80728D01*
X110417Y80418D01*
X110263Y80160D01*
X109497Y79643D01*
X109152Y79282D01*
X108922Y78765D01*
X108845Y78300D01*
X110455D01*
G01X84450Y114600D02*
X84143Y114652D01*
X83875Y114858D01*
X83645Y115168D01*
X83492Y115530D01*
X83415Y115943D01*
Y116357D01*
X83492Y116770D01*
X83645Y117132D01*
X83875Y117442D01*
X84143Y117648D01*
X84450Y117700D01*
X84757Y117648D01*
X85025Y117442D01*
X85255Y117132D01*
X85408Y116770D01*
X85485Y116357D01*
Y115943D01*
X85408Y115530D01*
X85255Y115168D01*
X85025Y114858D01*
X84757Y114652D01*
X84450Y114600D01*
G01X84757Y115427D02*
X85217Y114600D01*
G01X87550D02*
Y117700D01*
X87090Y117080D01*
G01Y114600D02*
X88010D01*
G01X79983Y92000D02*
Y95100D01*
X80942D01*
X81248Y94945D01*
X81440Y94738D01*
X81517Y94325D01*
X81440Y93912D01*
X81210Y93653D01*
X80942Y93498D01*
X79983D01*
G01X80942D02*
X81517Y92000D01*
G01X83007Y92465D02*
X83237Y92207D01*
X83505Y92052D01*
X83850Y92000D01*
X84195Y92103D01*
X84463Y92310D01*
X84655Y92672D01*
X84693Y93085D01*
X84617Y93498D01*
X84425Y93757D01*
X84157Y93963D01*
X83888Y94015D01*
X83620Y93963D01*
X83275Y93757D01*
X83390Y95100D01*
X84425D01*
G01X75583Y110000D02*
Y113100D01*
X76542D01*
X76848Y112945D01*
X77040Y112738D01*
X77117Y112325D01*
X77040Y111912D01*
X76810Y111653D01*
X76542Y111498D01*
X75583D01*
G01X76542D02*
X77117Y110000D01*
G01X78722Y111292D02*
X78990Y111653D01*
X79220Y111860D01*
X79527Y111963D01*
X79795Y111860D01*
X79987Y111653D01*
X80140Y111343D01*
X80178Y110982D01*
X80140Y110672D01*
X79987Y110362D01*
X79757Y110103D01*
X79488Y110000D01*
X79182Y110103D01*
X78913Y110413D01*
X78760Y110878D01*
X78722Y111395D01*
X78798Y112067D01*
X78913Y112428D01*
X79105Y112790D01*
X79373Y113048D01*
X79642Y113100D01*
X79910Y112997D01*
X80102Y112738D01*
G01X81400Y108967D02*
X83700D01*
G01X85650Y110000D02*
Y113100D01*
X85190Y112480D01*
G01Y110000D02*
X86110D01*
G01X91383Y109800D02*
Y112900D01*
X92342D01*
X92648Y112745D01*
X92840Y112538D01*
X92917Y112125D01*
X92840Y111712D01*
X92610Y111453D01*
X92342Y111298D01*
X91383D01*
G01X92342D02*
X92917Y109800D01*
G01X94522Y111092D02*
X94790Y111453D01*
X95020Y111660D01*
X95327Y111763D01*
X95595Y111660D01*
X95787Y111453D01*
X95940Y111143D01*
X95978Y110782D01*
X95940Y110472D01*
X95787Y110162D01*
X95557Y109903D01*
X95288Y109800D01*
X94982Y109903D01*
X94713Y110213D01*
X94560Y110678D01*
X94522Y111195D01*
X94598Y111867D01*
X94713Y112228D01*
X94905Y112590D01*
X95173Y112848D01*
X95442Y112900D01*
X95710Y112797D01*
X95902Y112538D01*
G01X97200Y108767D02*
X99500D01*
G01X100722Y112383D02*
X100952Y112693D01*
X101220Y112848D01*
X101527Y112900D01*
X101910Y112797D01*
X102178Y112538D01*
X102255Y112228D01*
X102217Y111918D01*
X102063Y111660D01*
X101297Y111143D01*
X100952Y110782D01*
X100722Y110265D01*
X100645Y109800D01*
X102255D01*
G01X94293Y126142D02*
X94063Y126297D01*
X93795Y126400D01*
X93488D01*
X93143Y126245D01*
X92875Y125987D01*
X92683Y125677D01*
X92530Y125160D01*
X92492Y124695D01*
X92568Y124230D01*
X92683Y123920D01*
X92913Y123610D01*
X93182Y123403D01*
X93450Y123300D01*
X93718D01*
X93987Y123403D01*
X94217Y123558D01*
X94408Y123765D01*
G01X95822Y125883D02*
X96052Y126193D01*
X96320Y126348D01*
X96627Y126400D01*
X97010Y126297D01*
X97278Y126038D01*
X97355Y125728D01*
X97317Y125418D01*
X97163Y125160D01*
X96397Y124643D01*
X96052Y124282D01*
X95822Y123765D01*
X95745Y123300D01*
X97355D01*
G01X98500Y122267D02*
X100800D01*
G01X102022Y125883D02*
X102252Y126193D01*
X102520Y126348D01*
X102827Y126400D01*
X103210Y126297D01*
X103478Y126038D01*
X103555Y125728D01*
X103517Y125418D01*
X103363Y125160D01*
X102597Y124643D01*
X102252Y124282D01*
X102022Y123765D01*
X101945Y123300D01*
X103555D01*
G01X84750Y145100D02*
X84443Y145152D01*
X84175Y145358D01*
X83945Y145668D01*
X83792Y146030D01*
X83715Y146443D01*
Y146857D01*
X83792Y147270D01*
X83945Y147632D01*
X84175Y147942D01*
X84443Y148148D01*
X84750Y148200D01*
X85057Y148148D01*
X85325Y147942D01*
X85555Y147632D01*
X85708Y147270D01*
X85785Y146857D01*
Y146443D01*
X85708Y146030D01*
X85555Y145668D01*
X85325Y145358D01*
X85057Y145152D01*
X84750Y145100D01*
G01X85057Y145927D02*
X85517Y145100D01*
G01X87122Y147683D02*
X87352Y147993D01*
X87620Y148148D01*
X87927Y148200D01*
X88310Y148097D01*
X88578Y147838D01*
X88655Y147528D01*
X88617Y147218D01*
X88463Y146960D01*
X87697Y146443D01*
X87352Y146082D01*
X87122Y145565D01*
X87045Y145100D01*
X88655D01*
G01X95000Y144683D02*
X91900D01*
Y145642D01*
X92055Y145948D01*
X92262Y146140D01*
X92675Y146217D01*
X93088Y146140D01*
X93347Y145910D01*
X93502Y145642D01*
Y144683D01*
G01Y145642D02*
X95000Y146217D01*
G01Y149010D02*
X91900D01*
X94122Y147592D01*
Y149508D01*
G01X114700Y18100D02*
Y15000D01*
G01X113818Y18100D02*
X115582D01*
G01X117033Y15000D02*
Y18100D01*
X117953D01*
X118260Y17945D01*
X118490Y17583D01*
X118567Y17170D01*
X118490Y16757D01*
X118298Y16447D01*
X117953Y16292D01*
X117033D01*
G01X120900Y15000D02*
Y18100D01*
X120440Y17480D01*
G01Y15000D02*
X121360D01*
G01X128093Y143542D02*
X127863Y143697D01*
X127595Y143800D01*
X127288D01*
X126943Y143645D01*
X126675Y143387D01*
X126483Y143077D01*
X126330Y142560D01*
X126292Y142095D01*
X126368Y141630D01*
X126483Y141320D01*
X126713Y141010D01*
X126982Y140803D01*
X127250Y140700D01*
X127518D01*
X127787Y140803D01*
X128017Y140958D01*
X128208Y141165D01*
G01X129622Y143283D02*
X129852Y143593D01*
X130120Y143748D01*
X130427Y143800D01*
X130810Y143697D01*
X131078Y143438D01*
X131155Y143128D01*
X131117Y142818D01*
X130963Y142560D01*
X130197Y142043D01*
X129852Y141682D01*
X129622Y141165D01*
X129545Y140700D01*
X131155D01*
G01X132300Y139667D02*
X134600D01*
G01X136550Y140700D02*
Y143800D01*
X136090Y143180D01*
G01Y140700D02*
X137010D01*
G01X130633Y13320D02*
X130825Y13010D01*
X131055Y12803D01*
X131323Y12700D01*
X131630Y12803D01*
X131860Y13010D01*
X132090Y13320D01*
X132167Y13733D01*
Y15800D01*
G01X133772Y15283D02*
X134002Y15593D01*
X134270Y15748D01*
X134577Y15800D01*
X134960Y15697D01*
X135228Y15438D01*
X135305Y15128D01*
X135267Y14818D01*
X135113Y14560D01*
X134347Y14043D01*
X134002Y13682D01*
X133772Y13165D01*
X133695Y12700D01*
X135305D01*
G01X137600Y15800D02*
X137293Y15697D01*
X137063Y15438D01*
X136910Y15128D01*
X136795Y14715D01*
X136757Y14250D01*
X136795Y13785D01*
X136910Y13372D01*
X137063Y13062D01*
X137293Y12803D01*
X137600Y12700D01*
X137907Y12803D01*
X138137Y13062D01*
X138290Y13372D01*
X138405Y13785D01*
X138443Y14250D01*
X138405Y14715D01*
X138290Y15128D01*
X138137Y15438D01*
X137907Y15697D01*
X137600Y15800D01*
G01X140183Y54220D02*
X140375Y53910D01*
X140605Y53703D01*
X140873Y53600D01*
X141180Y53703D01*
X141410Y53910D01*
X141640Y54220D01*
X141717Y54633D01*
Y56700D01*
G01X144050Y53600D02*
Y56700D01*
X143590Y56080D01*
G01Y53600D02*
X144510D01*
G01X147150D02*
X147418Y53652D01*
X147725Y53807D01*
X147917Y54065D01*
X147993Y54427D01*
X147917Y54788D01*
X147687Y55098D01*
X147342Y55253D01*
X146958D01*
X146728Y55357D01*
X146537Y55615D01*
X146460Y55977D01*
X146575Y56338D01*
X146843Y56597D01*
X147150Y56700D01*
X147457Y56597D01*
X147725Y56338D01*
X147840Y55977D01*
X147763Y55615D01*
X147572Y55357D01*
X147342Y55253D01*
X146958D01*
X146613Y55098D01*
X146383Y54788D01*
X146307Y54427D01*
X146383Y54065D01*
X146575Y53807D01*
X146882Y53652D01*
X147150Y53600D01*
G01X143933Y31720D02*
X144125Y31410D01*
X144355Y31203D01*
X144623Y31100D01*
X144930Y31203D01*
X145160Y31410D01*
X145390Y31720D01*
X145467Y32133D01*
Y34200D01*
G01X147800Y31100D02*
Y34200D01*
X147340Y33580D01*
G01Y31100D02*
X148260D01*
G01X150248Y31462D02*
X150517Y31203D01*
X150823Y31100D01*
X151130Y31203D01*
X151398Y31513D01*
X151590Y31978D01*
X151667Y32443D01*
Y33012D01*
X151590Y33477D01*
X151398Y33890D01*
X151168Y34097D01*
X150900Y34200D01*
X150593Y34097D01*
X150363Y33890D01*
X150210Y33580D01*
X150133Y33167D01*
X150210Y32805D01*
X150402Y32443D01*
X150632Y32237D01*
X150900Y32185D01*
X151207Y32288D01*
X151437Y32547D01*
X151667Y33012D01*
G01X143583Y84500D02*
Y87600D01*
X144503D01*
X144810Y87445D01*
X145040Y87083D01*
X145117Y86670D01*
X145040Y86257D01*
X144848Y85947D01*
X144503Y85792D01*
X143583D01*
G01X151993Y121642D02*
X151763Y121797D01*
X151495Y121900D01*
X151188D01*
X150843Y121745D01*
X150575Y121487D01*
X150383Y121177D01*
X150230Y120660D01*
X150192Y120195D01*
X150268Y119730D01*
X150383Y119420D01*
X150613Y119110D01*
X150882Y118903D01*
X151150Y118800D01*
X151418D01*
X151687Y118903D01*
X151917Y119058D01*
X152108Y119265D01*
G01X153407Y119420D02*
X153637Y119058D01*
X153943Y118852D01*
X154288Y118800D01*
X154595Y118852D01*
X154902Y119110D01*
X155093Y119420D01*
X155132Y119730D01*
X155055Y120092D01*
X154787Y120350D01*
X154518Y120453D01*
X154173D01*
G01X154518D02*
X154748Y120608D01*
X154940Y120867D01*
X155017Y121177D01*
X154940Y121487D01*
X154748Y121745D01*
X154403Y121900D01*
X154058Y121848D01*
X153713Y121642D01*
G01X145133Y141820D02*
X145325Y141510D01*
X145555Y141303D01*
X145823Y141200D01*
X146130Y141303D01*
X146360Y141510D01*
X146590Y141820D01*
X146667Y142233D01*
Y144300D01*
G01X149000Y141200D02*
Y144300D01*
X148540Y143680D01*
G01Y141200D02*
X149460D01*
G01X152023D02*
X152100Y141872D01*
X152215Y142440D01*
X152368Y142957D01*
X152560Y143525D01*
X152867Y144300D01*
X151333D01*
M02*
