G04 ================== begin FILE IDENTIFICATION RECORD ==================*
G04 Layout Name:  C:/CADENCE/allegro/SCHEMA_PT_PCB_FINAL.brd*
G04 Film Name:    TOP*
G04 File Format:  Gerber RS274X*
G04 File Origin:  Cadence Allegro 17.2-S025*
G04 Origin Date:  Sat Dec 28 18:10:24 2024*
G04 *
G04 Layer:  ETCH/TOP*
G04 Layer:  PIN/TOP*
G04 Layer:  VIA CLASS/TOP*
G04 *
G04 Offset:    (0.000 0.000)*
G04 Mirror:    No*
G04 Mode:      Positive*
G04 Rotation:  0*
G04 FullContactRelief:  No*
G04 UndefLineWidth:     10.000*
G04 ================== end FILE IDENTIFICATION RECORD ====================*
%FSLAX25Y25*MOIN*%
%IR0*IPPOS*OFA0.00000B0.00000*MIA0B0*SFA1.00000B1.00000*%
%ADD19R,.07087X.120079*%
%ADD10R,.120079X.07087*%
%ADD21R,.064961X.135831*%
%ADD16R,.135831X.064961*%
%ADD17R,.02X.017*%
%ADD13C,.03*%
%ADD15R,.043311X.037402*%
%ADD12C,.03937*%
%ADD18R,.051181X.051181*%
%ADD11R,.037402X.057091*%
%ADD14R,.057091X.037402*%
%ADD20R,.051181X.07874*%
%ADD22C,.016*%
%ADD23C,.018*%
%ADD24C,.078744*%
G75*
%LPD*%
G75*
G36*
G01X155300Y4000D02*
X125462D01*
G02X125138Y4635I0J400D01*
G03X125404Y5456I-1134J822D01*
G01Y12544D01*
G03X124004Y13944I-1400J0D01*
G01X111996D01*
G03X110596Y12544I0J-1400D01*
G01Y11200D01*
X94076D01*
X94030Y11334D01*
G03X92914Y12255I-1321J-464D01*
G01X92743Y12281D01*
Y17737D01*
X103248D01*
X106137Y20626D01*
Y21621D01*
G02X106848Y21873I400J0D01*
G03X110990Y21500I2252J1827D01*
G01X128544D01*
X128572Y21492D01*
G03X131400Y23600I629J2109D01*
G01Y48410D01*
G03X131094Y52497I-2200J1890D01*
G02X131355Y53200I261J303D01*
G01X135247D01*
X135700Y52747D01*
Y25847D01*
X138847Y22700D01*
X140596D01*
Y21456D01*
G03X141996Y20056I1400J0D01*
G01X145700D01*
Y18944D01*
X141996D01*
G03X140596Y17544I0J-1400D01*
G01Y10456D01*
G03X141996Y9056I1400J0D01*
G01X154004D01*
G03X155404Y10456I0J1400D01*
G01Y17544D01*
G03X154004Y18944I-1400J0D01*
G01X150300D01*
Y20056D01*
X154004D01*
G03X155404Y21456I0J1400D01*
G01Y28544D01*
G03X154004Y29944I-1400J0D01*
G01X141996D01*
G03X140988Y29515I0J-1400D01*
G02X140300Y29793I-288J278D01*
G01Y54653D01*
X137153Y57800D01*
X136012D01*
G02X135634Y58334I0J400D01*
G03X131011Y61500I-2734J966D01*
G01X129189D01*
X128889Y61200D01*
X126511D01*
X126200Y61511D01*
Y64041D01*
X126559D01*
G03X127959Y65441I0J1400D01*
G01Y70559D01*
G03X126559Y71959I-1400J0D01*
G01X121441D01*
G03X120865Y71835I0J-1400D01*
G02X120300Y72200I-165J365D01*
G01Y72855D01*
G02X120865Y73220I400J0D01*
G03X121441Y73096I576J1276D01*
G01X126559D01*
G03X127959Y74496I0J1400D01*
G01Y79614D01*
G03X126559Y81014I-1400J0D01*
G01X125300D01*
Y84153D01*
X122153Y87300D01*
X97207D01*
Y87855D01*
G03X97142Y88279I-1400J0D01*
G02X97523Y88800I381J121D01*
G01X106110D01*
G03X110200Y92890I1890J2200D01*
G01Y94411D01*
X109137Y95474D01*
Y99777D01*
X109271Y99824D01*
G03X110207Y101145I-464J1321D01*
G01Y106855D01*
G03X109271Y108176I-1400J0D01*
G01X109137Y108223D01*
Y112974D01*
X100911Y121200D01*
X91911D01*
X89700Y123411D01*
Y131629D01*
G03X89900Y132350I-1200J721D01*
G01Y134050D01*
G03X88500Y135450I-1400J0D01*
G01X86500D01*
G03X85538Y135067I0J-1400D01*
G01X85480Y135012D01*
X85200D01*
Y135311D01*
X82311Y138200D01*
X77207D01*
Y138737D01*
X85651D01*
G03X86500Y138450I849J1113D01*
G01X88500D01*
G03X89900Y139850I0J1400D01*
G01Y141550D01*
G03X88500Y142950I-1400J0D01*
G01X88361D01*
X88174Y143137D01*
X74626D01*
X71693Y140205D01*
X71647Y140190D01*
G03X70667Y138855I420J-1336D01*
G01Y133145D01*
G03X70952Y132298I1400J0D01*
G02X70935Y132037I-159J-121D01*
G03X71009Y127891I2065J-2037D01*
G02X70735Y127200I-275J-291D01*
G01X67076D01*
X67030Y127334D01*
G03X65708Y128270I-1321J-464D01*
G01X54292D01*
G03X52891Y126870I0J-1400D01*
G01Y123130D01*
G03X54086Y121745I1400J0D01*
G01X54257Y121720D01*
Y118281D01*
X54086Y118255D01*
G03X52970Y117334I205J-1385D01*
G01X52924Y117200D01*
X51404D01*
Y118544D01*
G03X50004Y119944I-1400J0D01*
G01X37996D01*
G03X36596Y118544I0J-1400D01*
G01Y111456D01*
G03X37212Y110296I1400J0D01*
G02X37271Y109682I-224J-331D01*
G01X35836Y108247D01*
G02X35176Y108397I-283J283D01*
G03X33855Y109333I-1321J-464D01*
G01X28145D01*
G03X26745Y107933I0J-1400D01*
G01Y107390D01*
G02X26404Y107249I-200J0D01*
G01X26300Y107353D01*
Y109153D01*
X23153Y112300D01*
X21404D01*
Y113544D01*
G03X20004Y114944I-1400J0D01*
G01X7996D01*
G03X6596Y113544I0J-1400D01*
G01Y106456D01*
G03X7996Y105056I1400J0D01*
G01X20004D01*
G03X21313Y105959I0J1400D01*
G01X21362Y106088D01*
X21700D01*
Y105447D01*
X24847Y102300D01*
X28700D01*
Y100847D01*
X31847Y97700D01*
X34098D01*
G02X34486Y97203I0J-400D01*
G03X34990Y94746I2814J-703D01*
G01X35096Y94607D01*
X34152Y93663D01*
X23144D01*
G02X22891Y94373I0J400D01*
G03X23404Y95457I-887J1084D01*
G01Y102543D01*
G03X22004Y103944I-1400J0D01*
G01X9996D01*
G03X8596Y102543I0J-1400D01*
G01Y95457D01*
G03X9996Y94056I1400J0D01*
G01X13737D01*
Y89223D01*
X13603Y89176D01*
G03X12667Y87855I464J-1321D01*
G01Y82145D01*
G03X14067Y80745I1400J0D01*
G01X17807D01*
G03X19207Y82145I0J1400D01*
G01Y87855D01*
G03X18967Y88639I-1400J0D01*
G02X19298Y89263I331J224D01*
G01X30576D01*
G02X30907Y88639I0J-400D01*
G03X30667Y87855I1160J-784D01*
G01Y82145D01*
G03X32067Y80745I1400J0D01*
G01X35807D01*
G03X37207Y82145I0J1400D01*
G01Y82800D01*
X43793D01*
Y82145D01*
G03X45193Y80745I1400J0D01*
G01X48933D01*
G03X50333Y82145I0J1400D01*
G01Y87855D01*
G03X48933Y89255I-1400J0D01*
G01X45193D01*
G03X43793Y87855I0J-1400D01*
G01Y87200D01*
X37207D01*
Y87855D01*
G03X36499Y89072I-1400J0D01*
G02X36414Y89702I198J348D01*
G01X39500Y92789D01*
Y94611D01*
G03X40114Y97203I-2200J1889D01*
G02X40502Y97700I388J97D01*
G01X52247D01*
X52700Y97247D01*
Y89213D01*
X52571Y89164D01*
G03X51667Y87855I496J-1309D01*
G01Y82145D01*
G03X53067Y80745I1400J0D01*
G01X53284D01*
Y80441D01*
X53198Y80381D01*
G03X51988Y78441I1656J-2381D01*
G01X51978Y78377D01*
X50716Y77114D01*
Y73032D01*
X54047Y69700D01*
X59793D01*
Y69145D01*
G03X59858Y68721I1400J0D01*
G02X59477Y68200I-381J-121D01*
G01X20404D01*
Y69543D01*
G03X19004Y70944I-1400J0D01*
G01X6996D01*
G03X5596Y69543I0J-1400D01*
G01Y62457D01*
G03X6996Y61056I1400J0D01*
G01X19004D01*
G03X20404Y62457I0J1400D01*
G01Y63800D01*
X71000D01*
G03X73200Y66000I0J2200D01*
G01Y67795D01*
X73326Y67845D01*
G03X74207Y69145I-519J1300D01*
G01Y74855D01*
G03X73271Y76176I-1400J0D01*
G01X73137Y76223D01*
Y78355D01*
X72800D01*
Y86200D01*
X73137D01*
Y101042D01*
G02X73714Y101400I400J0D01*
G03X76836Y101755I1286J2600D01*
G01X76891Y101800D01*
X77793D01*
Y101145D01*
G03X79193Y99745I1400J0D01*
G01X82933D01*
G03X84333Y101145I0J1400D01*
G01Y106855D01*
G03X82933Y108255I-1400J0D01*
G01X79193D01*
G03X77793Y106855I0J-1400D01*
G01Y106200D01*
X76891D01*
X76836Y106245D01*
G03X73714Y106600I-1836J-2245D01*
G02X73137Y106958I-177J359D01*
G01Y115000D01*
X74128D01*
X74153Y114994D01*
G03X74500Y114950I347J1356D01*
G01X76500D01*
G03X77900Y116350I0J1400D01*
G01Y118050D01*
G03X76500Y119450I-1400J0D01*
G01X75400D01*
Y120200D01*
X68737D01*
Y90600D01*
X68400D01*
Y76086D01*
G03X67667Y74855I667J-1231D01*
G01Y69145D01*
G03X67732Y68721I1400J0D01*
G02X67351Y68200I-381J-121D01*
G01X66649D01*
G02X66268Y68721I0J400D01*
G03X66333Y69145I-1334J424D01*
G01Y74855D01*
G03X65484Y76142I-1400J0D01*
G01X65363Y76194D01*
Y87300D01*
X58207D01*
Y87855D01*
G03X57414Y89117I-1400J0D01*
G01X57300Y89171D01*
Y99153D01*
X54153Y102300D01*
X40227D01*
X39838Y102689D01*
X39901Y102818D01*
G03X39726Y105689I-2601J1282D01*
G01X39637Y105825D01*
X39811Y106000D01*
X44311D01*
X47200Y108889D01*
Y110056D01*
X50004D01*
G03X51404Y111456I0J1400D01*
G01Y112800D01*
X52924D01*
X52970Y112666D01*
G03X54291Y111730I1321J464D01*
G01X65708D01*
G03X67109Y113130I0J1400D01*
G01Y116870D01*
G03X65914Y118255I-1400J0D01*
G01X65743Y118281D01*
Y121720D01*
X65914Y121745D01*
G03X67030Y122666I-205J1385D01*
G01X67076Y122800D01*
X71000D01*
Y122500D01*
X74128D01*
X74153Y122494D01*
G03X74500Y122450I347J1356D01*
G01X76500D01*
G03X77900Y123850I0J1400D01*
G01Y125550D01*
G03X77700Y126271I-1400J0D01*
G01Y128411D01*
X75893Y130219D01*
X75886Y130290D01*
G03X75514Y131446I-2886J-290D01*
G01X75488Y131492D01*
Y131745D01*
X75807D01*
G03X77207Y133145I0J1400D01*
G01Y133800D01*
X80489D01*
X80800Y133489D01*
Y123063D01*
G03X80100Y121850I700J-1213D01*
G01Y120150D01*
G03X81500Y118750I1400J0D01*
G01X83500D01*
G03X84900Y120150I0J1400D01*
G01Y120289D01*
X85200Y120589D01*
Y120723D01*
G02X85883Y121005I400J0D01*
G01X90089Y116800D01*
X99089D01*
X104737Y111152D01*
Y108223D01*
X104603Y108176D01*
G03X103667Y106855I464J-1321D01*
G01Y101145D01*
G03X104603Y99824I1400J0D01*
G01X104737Y99777D01*
Y93652D01*
X104847Y93542D01*
G02X104705Y93200I-141J-141D01*
G01X86752D01*
X83863Y90311D01*
Y89223D01*
X83729Y89176D01*
G03X82793Y87855I464J-1321D01*
G01Y82145D01*
G03X84193Y80745I1400J0D01*
G01X87933D01*
G03X89333Y82145I0J1400D01*
G01Y87855D01*
G03X89268Y88279I-1400J0D01*
G02X89649Y88800I381J121D01*
G01X90351D01*
G02X90732Y88279I0J-400D01*
G03X90667Y87855I1334J-424D01*
G01Y82145D01*
G03X91243Y81013I1400J0D01*
G02X91291Y80407I-235J-323D01*
G01X91184Y80300D01*
X80766D01*
G03X76700Y76234I-1766J-2300D01*
G01Y72847D01*
X79847Y69700D01*
X84952D01*
X85004Y69579D01*
G03X86292Y68730I1287J551D01*
G01X97709D01*
G03X99030Y69666I0J1400D01*
G01X99076Y69800D01*
X106110D01*
G03Y74200I1890J2200D01*
G01X99076D01*
X99030Y74334D01*
G03X97709Y75270I-1321J-464D01*
G01X86292D01*
G03X85004Y74421I0J-1400D01*
G01X84952Y74300D01*
X81753D01*
X81300Y74753D01*
Y75700D01*
X93090D01*
X96237Y78847D01*
Y80806D01*
X96358Y80858D01*
G03X97207Y82145I-551J1287D01*
G01Y82700D01*
X120247D01*
X120700Y82247D01*
Y80802D01*
G03X120041Y79614I741J-1188D01*
G01Y79355D01*
X118847D01*
X115700Y76208D01*
Y56347D01*
X117164Y54883D01*
G02X116881Y54200I-283J-283D01*
G01X115397D01*
Y55248D01*
G03X113997Y56648I-1400J0D01*
G01X100414D01*
G03X99013Y55248I0J-1400D01*
G01Y48752D01*
G03X100414Y47352I1400J0D01*
G01X113997D01*
G03X115397Y48752I0J1400D01*
G01Y49800D01*
X116089D01*
X116800Y49089D01*
Y46890D01*
G03X121200I2200J-1889D01*
G01Y50911D01*
X119595Y52517D01*
G02X119877Y53200I283J283D01*
G01X127045D01*
G02X127307Y52497I0J-400D01*
G03X127000Y48410I1893J-2197D01*
G01Y25900D01*
X111300D01*
Y29211D01*
X108411Y32100D01*
X107207D01*
Y32855D01*
G03X105807Y34255I-1400J0D01*
G01X102067D01*
G03X100667Y32855I0J-1400D01*
G01Y27145D01*
G03X101603Y25824I1400J0D01*
G01X101737Y25777D01*
Y22448D01*
X101426Y22137D01*
X89789D01*
X88343Y20691D01*
Y12270D01*
X81292D01*
G03X79970Y11334I0J-1400D01*
G01X79924Y11200D01*
X79037D01*
X78263Y11974D01*
Y25777D01*
X78397Y25824D01*
G03X79333Y27145I-464J1321D01*
G01Y32855D01*
G03X77933Y34255I-1400J0D01*
G01X74193D01*
G03X73493Y34067I0J-1400D01*
G02X72894Y34388I-200J346D01*
G03X72200Y36090I-2894J-188D01*
G01Y39311D01*
X69311Y42200D01*
X67207D01*
Y42855D01*
G03X66723Y43914I-1400J0D01*
G02X66702Y44499I262J303D01*
G01X68137Y45934D01*
Y46777D01*
X68271Y46824D01*
G03X69207Y48145I-464J1321D01*
G01Y53177D01*
G02X69890Y53460I400J0D01*
G01X73650Y49700D01*
X74603D01*
Y48752D01*
G03X76003Y47352I1400J0D01*
G01X89586D01*
G03X90987Y48752I0J1400D01*
G01Y55248D01*
G03X89586Y56648I-1400J0D01*
G01X76003D01*
G03X74745Y55862I0J-1400D01*
G02X74102Y55754I-360J175D01*
G01X69953Y59904D01*
X48650D01*
X45047Y56300D01*
X43753D01*
X43300Y56753D01*
Y58234D01*
G03X38700I-2300J1766D01*
G01Y54847D01*
X40664Y52883D01*
G02X40381Y52200I-283J-283D01*
G01X20404D01*
Y53544D01*
G03X19004Y54944I-1400J0D01*
G01X6996D01*
G03X5596Y53544I0J-1400D01*
G01Y46456D01*
G03X6173Y45324I1400J0D01*
G02Y44676I-235J-324D01*
G03X5596Y43544I823J-1133D01*
G01Y36456D01*
G03X6173Y35324I1400J0D01*
G02Y34676I-235J-324D01*
G03X5596Y33544I823J-1133D01*
G01Y26456D01*
G03X6996Y25056I1400J0D01*
G01X19004D01*
G03X20404Y26456I0J1400D01*
G01Y27800D01*
X31793D01*
Y27145D01*
G03X32729Y25824I1400J0D01*
G01X32863Y25777D01*
Y19152D01*
X34215Y17800D01*
X42924D01*
X42970Y17666D01*
G03X44292Y16730I1321J464D01*
G01X55709D01*
G03X57030Y17666I0J1400D01*
G01X57076Y17800D01*
X61911D01*
X66137Y22026D01*
Y25777D01*
X66271Y25824D01*
G03X67207Y27145I-464J1321D01*
G01Y27490D01*
G02X67549Y27631I200J0D01*
G01X67680Y27500D01*
X72320D01*
X72451Y27631D01*
G02X72793Y27490I141J-141D01*
G01Y27145D01*
G03X73729Y25824I1400J0D01*
G01X73863Y25777D01*
Y10152D01*
X77215Y6800D01*
X79924D01*
X79970Y6666D01*
G03X81292Y5730I1321J464D01*
G01X92708D01*
G03X94030Y6666I0J1400D01*
G01X94076Y6800D01*
X110596D01*
Y5456D01*
G03X110862Y4635I1400J0D01*
G02X110538Y4000I-324J-235D01*
G01X4900D01*
X4000Y4900D01*
Y155100D01*
X4900Y156000D01*
X140538D01*
G02X140862Y155365I0J-400D01*
G03X140596Y154544I1134J-822D01*
G01Y154237D01*
X105194D01*
X105142Y154358D01*
G03X103855Y155207I-1287J-551D01*
G01X98145D01*
G03X96858Y154358I0J-1400D01*
G01X96806Y154237D01*
X78191D01*
X77562Y153608D01*
G02X76952Y153660I-283J283D01*
G03X75807Y154255I-1145J-806D01*
G01X72067D01*
G03X70667Y152855I0J-1400D01*
G01Y147145D01*
G03X72067Y145745I1400J0D01*
G01X75807D01*
G03X77207Y147145I0J1400D01*
G01Y147700D01*
X78160D01*
X80097Y149637D01*
X96806D01*
X96858Y149516D01*
G03X98145Y148667I1287J551D01*
G01X103855D01*
G03X105142Y149516I0J1400D01*
G01X105194Y149637D01*
X105440D01*
G02X105811Y149087I0J-400D01*
G03X105848Y146825I2689J-1087D01*
G02X105483Y146263I-366J-162D01*
G01X105223D01*
X105176Y146397D01*
G03X103855Y147333I-1321J-464D01*
G01X98145D01*
G03X96745Y145933I0J-1400D01*
G01Y143904D01*
X95026Y142185D01*
Y140488D01*
X93789Y139250D01*
X93500D01*
G03X92100Y137850I0J-1400D01*
G01Y136150D01*
G03X93500Y134750I1400J0D01*
G01X95530D01*
X96000Y134280D01*
Y132880D01*
X100080Y128800D01*
X100924D01*
X100970Y128666D01*
G03X102292Y127730I1321J464D01*
G01X113709D01*
G03X115030Y128666I0J1400D01*
G01X115076Y128800D01*
X115920D01*
X119200Y132080D01*
Y135489D01*
X119511Y135800D01*
X131489D01*
X131800Y135489D01*
Y134397D01*
X130752D01*
G03X129352Y132997I0J-1400D01*
G01Y119414D01*
G03X130752Y118013I1400J0D01*
G01X137248D01*
G03X138648Y119414I0J1400D01*
G01Y132997D01*
G03X137248Y134397I-1400J0D01*
G01X136200D01*
Y137311D01*
X133311Y140200D01*
X121933D01*
Y140448D01*
X121955Y140491D01*
G03X122030Y140666I-1246J638D01*
G01X122077Y140800D01*
X124911D01*
X128069Y143957D01*
Y148043D01*
X127158Y148954D01*
G02X127440Y149637I283J283D01*
G01X138296D01*
Y148700D01*
X140596D01*
Y147456D01*
G03X141996Y146056I1400J0D01*
G01X154004D01*
G03X155404Y147456I0J1400D01*
G01Y154544D01*
G03X154871Y155643I-1400J0D01*
G01X154795Y155703D01*
Y156000D01*
X155100D01*
X156000Y155100D01*
Y52462D01*
G02X155365Y52138I-400J0D01*
G03X154970Y52338I-822J-1134D01*
G02X154809Y53001I122J381D01*
G01X155200Y53393D01*
Y70911D01*
X151383Y74728D01*
X150203D01*
Y76465D01*
G03X148803Y77865I-1400J0D01*
G01X143685D01*
G03X142285Y76465I0J-1400D01*
G01Y68591D01*
G03X143685Y67191I1400J0D01*
G01X148803D01*
G03X150203Y68591I0J1400D01*
G01Y69202D01*
G02X150545Y69344I200J0D01*
G01X150800Y69089D01*
Y55215D01*
X148800Y53215D01*
Y52404D01*
X147456D01*
G03X146056Y51004I0J-1400D01*
G01Y38996D01*
G03X147456Y37596I1400J0D01*
G01X154544D01*
G03X155365Y37862I0J1400D01*
G02X156000Y37538I235J-324D01*
G01Y4700D01*
X155300Y4000D01*
G37*
G36*
G01X37263Y22200D02*
Y25777D01*
X37397Y25824D01*
G03X38333Y27145I-464J1321D01*
G01Y32855D01*
G03X36933Y34255I-1400J0D01*
G01X33193D01*
G03X31793Y32855I0J-1400D01*
G01Y32200D01*
X20404D01*
Y33544D01*
G03X19827Y34676I-1400J0D01*
G02Y35324I235J324D01*
G03X20404Y36456I-823J1133D01*
G01Y37800D01*
X52793D01*
Y37145D01*
G03X54193Y35745I1400J0D01*
G01X57933D01*
G03X59333Y37145I0J1400D01*
G01Y42855D01*
G03X57933Y44255I-1400J0D01*
G01X54193D01*
G03X52793Y42855I0J-1400D01*
G01Y42200D01*
X20404D01*
Y43544D01*
G03X19827Y44676I-1400J0D01*
G02Y45324I235J324D01*
G03X20404Y46456I-823J1133D01*
G01Y47800D01*
X54829D01*
X54877Y47668D01*
G03X56193Y46745I1316J477D01*
G01X59933D01*
G03X61333Y48145I0J1400D01*
G01Y53855D01*
G03X61071Y54670I-1400J0D01*
G02X61396Y55303I325J233D01*
G01X62604D01*
G02X62929Y54670I0J-400D01*
G03X62667Y53855I1138J-816D01*
G01Y48145D01*
G03X62984Y47258I1400J0D01*
G01X63098Y47118D01*
X61737Y45757D01*
Y44223D01*
X61603Y44176D01*
G03X60667Y42855I464J-1321D01*
G01Y37145D01*
G03X62067Y35745I1400J0D01*
G01X65807D01*
G03X67207Y37145I0J1400D01*
G01Y37598D01*
G02X67549Y37740I200J0D01*
G01X67800Y37489D01*
Y36090D01*
G03X67106Y34388I2200J-1890D01*
G02X66507Y34067I-399J26D01*
G03X65807Y34255I-700J-1213D01*
G01X62067D01*
G03X60667Y32855I0J-1400D01*
G01Y27145D01*
G03X61603Y25824I1400J0D01*
G01X61737Y25777D01*
Y23848D01*
X60089Y22200D01*
X57076D01*
X57030Y22334D01*
G03X55708Y23270I-1321J-464D01*
G01X44292D01*
G03X42970Y22334I0J-1400D01*
G01X42924Y22200D01*
X37263D01*
G37*
G36*
G01X48419Y52200D02*
G02X48136Y52883I0J400D01*
G01X50556Y55303D01*
X54730D01*
G02X55055Y54670I0J-400D01*
G03X54793Y53855I1138J-816D01*
G01Y53200D01*
X52693D01*
Y52200D01*
X48419D01*
G37*
G36*
G01X55805Y75260D02*
G03X56510Y80381I-951J2740D01*
G01X56424Y80441D01*
Y80745D01*
X56807D01*
G03X58207Y82145I0J1400D01*
G01Y82700D01*
X60763D01*
Y76194D01*
X60642Y76142D01*
G03X59793Y74855I551J-1287D01*
G01Y74300D01*
X55953D01*
X55654Y74599D01*
G02X55805Y75260I283J283D01*
G37*
G36*
G01X58657Y118270D02*
Y121730D01*
X61343D01*
Y118270D01*
X58657D01*
G37*
G36*
G01X101136Y133967D02*
X100400Y134703D01*
Y136103D01*
X100000Y136503D01*
Y137731D01*
X99246Y138485D01*
X99426Y138665D01*
Y140362D01*
X99857Y140793D01*
X103855D01*
G03X105176Y141729I0J1400D01*
G01X105223Y141863D01*
X105791D01*
Y140800D01*
X107924D01*
X107970Y140666D01*
G03X108066Y140453I1321J464D01*
G02X107653Y139865I-350J-193D01*
G03X105146Y134953I-453J-2865D01*
G02X104862Y134270I-283J-282D01*
G01X102292D01*
G03X101404Y133953I0J-1400D01*
G02X101136Y133967I-127J155D01*
G37*
G36*
G01X120753Y57800D02*
X120300Y58253D01*
Y63800D01*
G02X120865Y64165I400J0D01*
G03X121441Y64041I576J1276D01*
G01X121800D01*
Y59689D01*
X123005Y58483D01*
G02X122723Y57800I-283J-283D01*
G01X120753D01*
G37*
G36*
G01X114800Y134532D02*
G02X114246Y134163I-400J0D01*
G03X113914Y134255I-538J-1293D01*
G01X113743Y134280D01*
Y136368D01*
X110911Y139200D01*
X109090D01*
G03X108822Y139405I-1890J-2200D01*
G02X108978Y139765I112J166D01*
G03X109292Y139730I313J1365D01*
G01X116252D01*
G02X116535Y139047I0J-400D01*
G01X114800Y137311D01*
Y134532D01*
G37*
%LPC*%
G75*
G36*
G01X5693Y82145D02*
Y87855D01*
G02X6193Y88355I500J0D01*
G01X9933D01*
G02X10433Y87855I0J-500D01*
G01Y82145D01*
G02X9933Y81645I-500J0D01*
G01X9363D01*
Y79476D01*
X11539Y77300D01*
X23461D01*
X24700Y78539D01*
Y81321D01*
X24763Y81384D01*
Y81433D01*
X24675Y81645D01*
X24193D01*
G02X23693Y82145I0J500D01*
G01Y87855D01*
G02X24193Y88355I500J0D01*
G01X27933D01*
G02X28433Y87855I0J-500D01*
G01Y82145D01*
G02X27933Y81645I-500J0D01*
G01X27363D01*
Y80307D01*
X27300Y80244D01*
Y77461D01*
X24539Y74700D01*
X10461D01*
X6763Y78398D01*
Y81645D01*
X6193D01*
G02X5693Y82145I0J500D01*
G37*
G36*
G01X67933Y131745D02*
X64193D01*
G02X62793Y133145I0J1400D01*
G01Y138855D01*
G02X63729Y140176I1400J0D01*
G01X63863Y140223D01*
Y145777D01*
X63729Y145824D01*
G02X62793Y147145I464J1321D01*
G01Y152855D01*
G02X64193Y154255I1400J0D01*
G01X67933D01*
G02X69333Y152855I0J-1400D01*
G01Y147145D01*
G02X68397Y145824I-1400J0D01*
G01X68263Y145777D01*
Y140223D01*
X68397Y140176D01*
G02X69333Y138855I-464J-1321D01*
G01Y133145D01*
G02X67933Y131745I-1400J0D01*
G37*
G36*
G01X90807Y99745D02*
X87067D01*
G02X85667Y101145I0J1400D01*
G01Y106855D01*
G02X87067Y108255I1400J0D01*
G01X90807D01*
G02X92207Y106855I0J-1400D01*
G01Y106200D01*
X95793D01*
Y106855D01*
G02X97193Y108255I1400J0D01*
G01X100933D01*
G02X102333Y106855I0J-1400D01*
G01Y101145D01*
G02X100933Y99745I-1400J0D01*
G01X97193D01*
G02X95793Y101145I0J1400D01*
G01Y101800D01*
X92207D01*
Y101145D01*
G02X90807Y99745I-1400J0D01*
G37*
G36*
G01X129352Y108587D02*
G02X130752Y109987I1400J0D01*
G01X137248D01*
G02X138648Y108587I0J-1400D01*
G01Y95003D01*
G02X137248Y93603I-1400J0D01*
G01X136200D01*
Y89890D01*
G02X131800I-2200J-1889D01*
G01Y93603D01*
X130752D01*
G02X129352Y95003I0J1400D01*
G01Y108587D01*
G37*
G36*
G01X85807Y25745D02*
X82067D01*
G02X80667Y27145I0J1400D01*
G01Y32855D01*
G02X82067Y34255I1400J0D01*
G01X85807D01*
G02X87207Y32855I0J-1400D01*
G01Y32200D01*
X92793D01*
Y32855D01*
G02X94193Y34255I1400J0D01*
G01X97933D01*
G02X99333Y32855I0J-1400D01*
G01Y27145D01*
G02X97933Y25745I-1400J0D01*
G01X94193D01*
G02X92793Y27145I0J1400D01*
G01Y27800D01*
X87207D01*
Y27145D01*
G02X85807Y25745I-1400J0D01*
G37*
G36*
G01X33855Y110667D02*
X28145D01*
G02X26745Y112067I0J1400D01*
G01Y115807D01*
G02X27358Y116965I1400J0D01*
G03X27417Y117579I-225J331D01*
G01X26800Y118196D01*
Y119793D01*
X26145D01*
G02X24845Y120674I0J1400D01*
G01X24795Y120800D01*
X13689D01*
X10800Y123689D01*
Y125056D01*
X6996D01*
G02X5596Y126457I0J1400D01*
G01Y133544D01*
G02X6173Y134676I1400J0D01*
G03Y135324I-235J324D01*
G02X5596Y136456I823J1133D01*
G01Y143544D01*
G02X6195Y144692I1400J0D01*
G01X6281Y144752D01*
Y145056D01*
X5996D01*
G02X4596Y146456I0J1400D01*
G01Y153544D01*
G02X5996Y154944I1400J0D01*
G01X18004D01*
G02X19404Y153544I0J-1400D01*
G01Y152200D01*
X21504D01*
Y152137D01*
X22777D01*
X22824Y152271D01*
G02X24145Y153207I1321J-464D01*
G01X29855D01*
G02X31255Y151807I0J-1400D01*
G01Y148067D01*
G02X29855Y146667I-1400J0D01*
G01X24145D01*
G02X22824Y147603I0J1400D01*
G01X22777Y147737D01*
X19404D01*
Y146456D01*
G02X18805Y145308I-1400J0D01*
G01X18719Y145248D01*
Y144944D01*
X19004D01*
G02X20338Y143970I0J-1400D01*
G03X21001Y143809I381J122D01*
G01X21456Y144263D01*
X22777D01*
X22824Y144397D01*
G02X24145Y145333I1321J-464D01*
G01X29855D01*
G02X31255Y143933I0J-1400D01*
G01Y140193D01*
G02X29855Y138793I-1400J0D01*
G01X29200D01*
Y137018D01*
X31200Y135018D01*
Y134207D01*
X31855D01*
G02X33255Y132807I0J-1400D01*
G01Y129067D01*
G02X31855Y127667I-1400J0D01*
G01X26145D01*
G02X24745Y129067I0J1400D01*
G01Y132807D01*
G02X25358Y133965I1400J0D01*
G03X25417Y134579I-225J331D01*
G01X24800Y135196D01*
Y138793D01*
X24145D01*
G02X23167Y139192I0J1400D01*
G03X22604Y139188I-280J-286D01*
G01X21215Y137800D01*
X20404D01*
Y136456D01*
G02X19827Y135324I-1400J0D01*
G03Y134676I235J-324D01*
G02X20404Y133544I-823J-1133D01*
G01Y126457D01*
G02X20236Y125790I-1400J0D01*
G03X20587Y125200I352J-190D01*
G01X24322D01*
X24345Y125205D01*
G02X24784Y125262I501J-2142D01*
G02X26145Y126333I1361J-329D01*
G01X31855D01*
G02X33255Y124933I0J-1400D01*
G01Y121193D01*
G02X32223Y119842I-1400J0D01*
G03X32045Y119173I105J-386D01*
G01X33200Y118018D01*
Y117207D01*
X33855D01*
G02X35255Y115807I0J-1400D01*
G01Y112067D01*
G02X33855Y110667I-1400J0D01*
G37*
G36*
G01X46207Y27145D02*
G02X44807Y25745I-1400J0D01*
G01X41067D01*
G02X39667Y27145I0J1400D01*
G01Y32855D01*
G02X41067Y34255I1400J0D01*
G01X44807D01*
G02X46207Y32855I0J-1400D01*
G01Y32200D01*
X52793D01*
Y32855D01*
G02X54193Y34255I1400J0D01*
G01X57933D01*
G02X59333Y32855I0J-1400D01*
G01Y27145D01*
G02X57933Y25745I-1400J0D01*
G01X54193D01*
G02X52793Y27145I0J1400D01*
G01Y27800D01*
X46207D01*
Y27145D01*
G37*
G54D24*
X20000Y20000D03*
X140000Y140000D03*
%LPD*%
G75*
G54D10*
X13000Y30000D03*
Y50000D03*
Y40000D03*
Y66000D03*
X14000Y110000D03*
X16000Y99000D03*
X12000Y150000D03*
X13000Y140000D03*
Y130000D03*
X44000Y115000D03*
X118000Y9000D03*
X148000Y25000D03*
Y14000D03*
Y151000D03*
G54D20*
X146244Y72528D03*
G54D11*
X8063Y85000D03*
X35063Y30000D03*
X15937Y85000D03*
X26063D03*
X33937D03*
X42937Y30000D03*
X63937D03*
X56063D03*
X63937Y40000D03*
X56063D03*
X65937Y51000D03*
X58063D03*
X70937Y72000D03*
X63063D03*
X47063Y85000D03*
X54937D03*
X66063Y150000D03*
Y136000D03*
X83937Y30000D03*
X76063D03*
X96063D03*
X86063Y85000D03*
X93937D03*
X88937Y104000D03*
X81063D03*
X99063D03*
X73937Y150000D03*
Y136000D03*
X103937Y30000D03*
X106937Y104000D03*
G54D12*
X20000Y20000D03*
X140000Y140000D03*
G54D21*
X134000Y101795D03*
Y126205D03*
G54D22*
G01X26063Y85000D02*
Y80845D01*
X26000Y80782D01*
Y78000D01*
X24000Y76000D01*
X11000D01*
X8063Y78937D01*
Y85000D01*
G01X13000Y30000D02*
X35063D01*
G01X46457Y20000D02*
X35126D01*
X35063Y20063D01*
Y30000D01*
G01X13000Y40000D02*
X56063D01*
G01X13000Y50000D02*
X54893D01*
Y51000D01*
X58063D01*
G01X33937Y85000D02*
X47063D01*
G01X70937Y72000D02*
Y67845D01*
X71000D01*
Y66000D01*
X13000D01*
G01X16000Y94157D02*
X15937D01*
Y85000D01*
G01X29000Y123063D02*
Y119107D01*
X31000Y117107D01*
Y113937D01*
G01X44000Y115000D02*
X45000Y114000D01*
Y109800D01*
X43400Y108200D01*
X38900D01*
X37300Y106600D01*
Y104100D01*
G01X16000Y94157D02*
Y99000D01*
G01X37300Y96500D02*
Y93700D01*
X35063Y91463D01*
X18694D01*
X16000Y94157D01*
G01X27000Y142063D02*
X22367D01*
X20304Y140000D01*
X13000D01*
G01X27000Y142063D02*
Y136107D01*
X29000Y134107D01*
Y130937D01*
G01X13000Y130000D02*
Y124600D01*
X14600Y123000D01*
X28937D01*
X29000Y123063D01*
G01D02*
X24845D01*
G01X27000Y149937D02*
X19304D01*
Y150000D01*
X12000D01*
G01X42937Y30000D02*
X56063D01*
G01X53543Y20000D02*
X61000D01*
X63937Y22937D01*
Y30000D01*
G01X76063D02*
X71709D01*
X71409Y29700D01*
X68592D01*
X68292Y30000D01*
X63937D01*
G01Y40000D02*
Y44845D01*
X65937Y46845D01*
Y51000D01*
G01X70000Y34200D02*
Y38400D01*
X68400Y40000D01*
X63937D01*
G01X70937Y72000D02*
Y76155D01*
X70600D01*
Y88400D01*
X70937D01*
Y118000D01*
X73200D01*
Y117200D01*
X75500D01*
G01X63543Y125000D02*
Y115000D01*
G01X56457Y125000D02*
Y115000D01*
G01D02*
X44000D01*
G01X63543Y125000D02*
X73200D01*
Y124700D01*
X75500D01*
G01X66063Y150000D02*
Y136000D01*
G01X90543Y9000D02*
Y19780D01*
X90700Y19937D01*
X102337D01*
X103937Y21537D01*
Y30000D01*
G01X90543Y9000D02*
X118000D01*
G01X83937Y30000D02*
X96063D01*
G01X83457Y9000D02*
X78126D01*
X76063Y11063D01*
Y30000D01*
G01X95543Y72000D02*
X108000D01*
G01Y91000D02*
X87663D01*
X86063Y89400D01*
Y85000D01*
G01X81063Y104000D02*
X75000D01*
G01X99063D02*
X88937D01*
G01X106937D02*
Y112063D01*
X100000Y119000D01*
X91000D01*
X87500Y122500D01*
Y133200D01*
G01X73937Y136000D02*
X81400D01*
X83000Y134400D01*
Y121500D01*
X82500Y121000D01*
G01X75500Y124700D02*
Y127500D01*
X73000Y130000D01*
G01X73937Y136000D02*
Y139337D01*
X75537Y140937D01*
X87263D01*
X87500Y140700D01*
G01X101000Y144063D02*
X100015D01*
X97226Y141274D01*
Y139576D01*
X94650Y137000D01*
G01D02*
X94500D01*
G01X94650D02*
X97620D01*
X97800Y136820D01*
Y135592D01*
X98200Y135192D01*
Y133792D01*
X100991Y131000D01*
X104457D01*
G01X109100Y23700D02*
Y28300D01*
X107500Y29900D01*
X104037D01*
X103937Y30000D01*
G01X109100Y23700D02*
X129100D01*
X129200Y23600D01*
Y50300D01*
G01X132900Y59300D02*
X130100D01*
X129800Y59000D01*
X125600D01*
X124000Y60600D01*
Y68000D01*
G01X119000Y45000D02*
Y50000D01*
X117000Y52000D01*
X107205D01*
G01X106937Y104000D02*
Y94563D01*
X108000Y93500D01*
Y91000D01*
G01X134000Y126205D02*
Y136400D01*
X132400Y138000D01*
X118600D01*
X117000Y136400D01*
Y132992D01*
X115008Y131000D01*
X111543D01*
G01X108500Y148000D02*
X108763Y148263D01*
X124737D01*
X125869Y147131D01*
Y144869D01*
X124000Y143000D01*
X118543D01*
G01X107200Y137000D02*
X110000D01*
X111543Y135457D01*
Y131000D01*
G01X101000Y144063D02*
X107992D01*
Y143000D01*
X111457D01*
G01X151000Y45000D02*
Y52304D01*
X153000Y54304D01*
Y70000D01*
X150472Y72528D01*
X146244D01*
G01X134000Y101795D02*
Y88000D01*
G54D13*
X41000Y60000D03*
X37300Y96500D03*
Y104100D03*
X70000Y34200D03*
X54854Y78000D03*
X79000D03*
X75000Y104000D03*
X73000Y130000D03*
X109100Y23700D03*
X129200Y50300D03*
X119000Y45000D03*
X108000Y72000D03*
Y91000D03*
X108500Y148000D03*
X107200Y137000D03*
X132900Y59300D03*
X134000Y88000D03*
G54D23*
G01X41000Y60000D02*
Y55800D01*
X42800Y54000D01*
X46000D01*
X49603Y57603D01*
X69000D01*
X74603Y52000D01*
X82795D01*
G01X31000Y106063D02*
X29537Y104600D01*
X25800D01*
X24000Y106400D01*
Y108200D01*
X22200Y110000D01*
X14000D01*
G01X54937Y85000D02*
X55000Y85063D01*
Y98200D01*
X53200Y100000D01*
X39274D01*
X38974Y100300D01*
X35626D01*
X35326Y100000D01*
X32800D01*
X31000Y101800D01*
Y106063D01*
G01X54854Y78000D02*
X53016Y76162D01*
Y73984D01*
X55000Y72000D01*
X63063D01*
G01X54937Y85000D02*
X63063D01*
Y72000D01*
G01X93937Y85000D02*
Y79800D01*
X92137Y78000D01*
X79000D01*
G01X93937Y85000D02*
X121200D01*
X123000Y83200D01*
Y78055D01*
X124000Y77055D01*
G01X88457Y72000D02*
X80800D01*
X79000Y73800D01*
Y78000D01*
G01X101000Y151937D02*
X79144D01*
X77207Y150000D01*
X73937D01*
G01X124000Y77055D02*
X119800D01*
X118000Y75255D01*
Y57300D01*
X119800Y55500D01*
X136200D01*
X138000Y53700D01*
Y26800D01*
X139800Y25000D01*
X148000D01*
G01X101000Y151937D02*
X140596D01*
Y151000D01*
X148000D01*
G01Y25000D02*
Y14000D01*
G54D14*
X31000Y113937D03*
Y106063D03*
X27000Y149937D03*
Y142063D03*
X29000Y130937D03*
Y123063D03*
X101000Y151937D03*
Y144063D03*
G54D15*
X53543Y20000D03*
X46457D03*
X63543Y115000D03*
X56457D03*
X63543Y125000D03*
X56457D03*
X90543Y9000D03*
X83457D03*
X95543Y72000D03*
X88457D03*
X118543Y143000D03*
X111457D03*
X111543Y131000D03*
X104457D03*
G54D16*
X107205Y52000D03*
X82795D03*
G54D17*
X75500Y117200D03*
X82500Y121000D03*
X75500Y124700D03*
X87500Y133200D03*
Y140700D03*
X94500Y137000D03*
G54D18*
X124000Y77055D03*
Y68000D03*
G54D19*
X151000Y45000D03*
M02*
